<svg xmlns="http://www.w3.org/2000/svg" xmlns:xlink="http://www.w3.org/1999/xlink" fill="none" version="1.1" width="44" height="44" viewBox="0 0 44 44"><defs><clipPath id="master_svg0_1612_015871"><rect x="0" y="0" width="44" height="44" rx="0"/></clipPath><radialGradient cx="0" cy="0" r="1" gradientUnits="userSpaceOnUse" id="master_svg1_1017_88394" gradientTransform="translate(29.33154296875 11.335979223251343) rotate(113.04381073366892) scale(33.51077250425956 33.51077250425956)"><stop offset="0%" stop-color="#D9DFEB" stop-opacity="1"/><stop offset="100%" stop-color="#FFFFFF" stop-opacity="1"/></radialGradient><linearGradient x1="1" y1="0.5" x2="0" y2="0.5" id="master_svg2_957_57223"><stop offset="0%" stop-color="#45C8FF" stop-opacity="1"/><stop offset="48.47047030925751%" stop-color="#4CCAFF" stop-opacity="1"/><stop offset="51.056647300720215%" stop-color="#6CEAFE" stop-opacity="1"/><stop offset="100%" stop-color="#69E9FE" stop-opacity="1"/></linearGradient></defs><g clip-path="url(#master_svg0_1612_015871)"><g><ellipse cx="22" cy="22" rx="22" ry="22" fill="url(#master_svg1_1017_88394)" fill-opacity="1"/><ellipse cx="22" cy="22" rx="21.5" ry="21.5" fill-opacity="0" stroke-opacity="1" stroke="#FFFFFF" fill="none" stroke-width="1"/></g><g><g><path d="M7.768847942352295,13.64697265625L21.879647942352292,21.79385265625L21.879647942352292,38.08757265625L7.768847942352295,29.94077265625L7.768847942352295,13.64697265625Z" fill="#1773FF" fill-opacity="1"/></g><g><path d="M21.879647942352292,5.56884765625L35.99044794235229,13.71572765625L21.879647942352292,21.86264765625L7.768847942352295,13.71572765625L21.879647942352292,5.56884765625Z" fill="url(#master_svg2_957_57223)" fill-opacity="1"/></g><g><path d="M35.99048778610229,13.64697265625L21.879687786102295,21.79385265625L21.879687786102295,38.08757265625L35.99048778610229,29.94077265625L35.99048778610229,13.64697265625Z" fill="#0BA3FD" fill-opacity="1"/></g><g><path d="M21.810800286102292,5.5L22.795600286102292,20.0878L35.92160028610229,13.64688L23.780500286102296,21.7936L35.92160028610229,29.9406L22.795600286102292,23.4996L21.810800286102292,38.0875L20.826000286102293,23.4996L7.700000286102295,29.9406L19.841100286102296,21.7936L7.700000286102295,13.64688L20.826000286102293,20.0878L21.810800286102292,5.5Z" fill-rule="evenodd" fill="#FFFFFF" fill-opacity="1"/></g></g></g></svg>