<svg xmlns="http://www.w3.org/2000/svg" xmlns:xlink="http://www.w3.org/1999/xlink" fill="none" version="1.1" width="38" height="38" viewBox="0 0 38 38"><defs><linearGradient x1="0.5" y1="0" x2="0.4067230224609375" y2="1" id="master_svg0_957_61848"><stop offset="0%" stop-color="#0073FF" stop-opacity="1"/><stop offset="100%" stop-color="#36A4FF" stop-opacity="1"/></linearGradient><clipPath id="master_svg1_4402_080366"><rect x="9" y="9" width="20" height="20" rx="0"/></clipPath></defs><g><rect x="0" y="0" width="38" height="38" rx="19" fill="url(#master_svg0_957_61848)" fill-opacity="1"/><g clip-path="url(#master_svg1_4402_080366)"><g><g><path d="M27.0112259765625,10.672722276139526L10.9893319765625,16.013366746139525C10.7421552765625,16.09575674613953,10.6085709765625,16.362926746139525,10.6909632765625,16.610106746139525C10.7282879765625,16.72207674613953,10.8062309765625,16.815986746139526,10.9094079765625,16.873316746139526L17.3220959765625,20.435916746139526C17.4141559765625,20.487066746139526,17.5289759765625,20.470986746139527,17.6034459765625,20.396516746139525L27.1319259765625,10.868006746139526C27.1780259765625,10.821948746139526,27.1780259765625,10.747272646139526,27.1319259765625,10.701213946139527C27.1003259765625,10.669625646139526,27.0536259765625,10.658595556139526,27.0112259765625,10.672722276139526Z" fill-rule="evenodd" fill="#FFFFFF" fill-opacity="1"/></g><g style="opacity:0.3199999928474426;"><path d="M27.3271917578125,10.98867205859375L21.9865417578125,27.01063505859375C21.9041517578125,27.25773505859375,21.6369817578125,27.39133505859375,21.3898117578125,27.30893505859375C21.2778317578125,27.27163505859375,21.1839217578125,27.19373505859375,21.1266017578125,27.09053505859375L17.5639915578125,20.67783505859375C17.5128453578125,20.58576505859375,17.5289257178125,20.470955058593752,17.6033956578125,20.39648505859375L27.1319017578125,10.86797905859375C27.1779617578125,10.82192035859375,27.252641757812498,10.82192035859375,27.2986917578125,10.86797905859375C27.3302817578125,10.89956735859375,27.3413117578125,10.94629205859375,27.3271917578125,10.98867205859375Z" fill-rule="evenodd" fill="#FFFFFF" fill-opacity="1"/></g></g></g></g></svg>