<svg xmlns="http://www.w3.org/2000/svg" xmlns:xlink="http://www.w3.org/1999/xlink" fill="none" version="1.1" width="24" height="23.100000381469727" viewBox="0 0 24 23.100000381469727"><defs><clipPath id="master_svg0_1612_014660"><rect x="0" y="0" width="24" height="23.100000381469727" rx="0"/></clipPath><linearGradient x1="0.5" y1="0" x2="0.5" y2="1" id="master_svg1_1171_57306"><stop offset="0%" stop-color="#B7CEF4" stop-opacity="1"/><stop offset="99.55357313156128%" stop-color="#443AC7" stop-opacity="1"/></linearGradient><radialGradient cx="0" cy="0" r="1" gradientUnits="userSpaceOnUse" id="master_svg2_1171_57307" gradientTransform="translate(1.597347915172577 4.853030101451054) rotate(61.57523476000955) scale(16.708272513118416 19.72082469498506)"><stop offset="0%" stop-color="#6D6AF6" stop-opacity="1"/><stop offset="100%" stop-color="#FFFFFF" stop-opacity="0"/></radialGradient><linearGradient x1="0.5" y1="0" x2="0.5" y2="1" id="master_svg3_1171_53542"><stop offset="0%" stop-color="#FFFFFF" stop-opacity="1"/><stop offset="100%" stop-color="#FFFFFF" stop-opacity="0.7699999809265137"/></linearGradient><filter id="master_svg4_1612_014669" filterUnits="objectBoundingBox" color-interpolation-filters="sRGB" x="0" y="0" width="24" height="16.09756088256836"><feFlood flood-opacity="0" result="BackgroundImageFix"/><feBlend mode="normal" in="SourceGraphic" in2="BackgroundImageFix" result="shape"/><feGaussianBlur in="BackgroundImage" stdDeviation="0.9000000357627869"/><feComposite in2="SourceAlpha" operator="in" result="effect1_foregroundBlur"/><feBlend mode="normal" in="SourceGraphic" in2="effect1_foregroundBlur" result="shape"/></filter><linearGradient x1="0.5" y1="0" x2="0.5" y2="1" id="master_svg5_1171_57318"><stop offset="0%" stop-color="#B7CEF4" stop-opacity="1"/><stop offset="99.55357313156128%" stop-color="#7378F2" stop-opacity="1"/></linearGradient><radialGradient cx="0" cy="0" r="1" gradientUnits="userSpaceOnUse" id="master_svg6_1171_57319" gradientTransform="translate(1.597347915172577 1.6069154239446561) rotate(55.63986902912616) scale(14.091625707114478 21.009332993855896)"><stop offset="0%" stop-color="#FCFFFB" stop-opacity="1"/><stop offset="100%" stop-color="#FFFFFF" stop-opacity="0"/></radialGradient><linearGradient x1="0.5" y1="0" x2="0.5" y2="1" id="master_svg7_1171_53542"><stop offset="0%" stop-color="#FFFFFF" stop-opacity="1"/><stop offset="100%" stop-color="#FFFFFF" stop-opacity="0.7699999809265137"/></linearGradient><filter id="master_svg8_1612_014663" filterUnits="objectBoundingBox" color-interpolation-filters="sRGB" x="-2.4000000953674316" y="-1.8000000715255737" width="18.132922172546387" height="11.860333919525146"><feFlood flood-opacity="0" result="BackgroundImageFix"/><feColorMatrix in="SourceAlpha" type="matrix" values="0 0 0 0 0 0 0 0 0 0 0 0 0 0 0 0 0 0 127 0"/><feOffset dy="0.6000000238418579" dx="0"/><feGaussianBlur stdDeviation="0.6000000238418579"/><feColorMatrix type="matrix" values="0 0 0 0 0 0 0 0 0 0 0 0 0 0 0 0 0 0 0.20000000298023224 0"/><feBlend mode="normal" in2="BackgroundImageFix" result="effect1_dropShadow"/><feBlend mode="normal" in="SourceGraphic" in2="effect1_dropShadow" result="shape"/><feColorMatrix in="SourceAlpha" type="matrix" result="hardAlpha" values="0 0 0 0 0 0 0 0 0 0 0 0 0 0 0 0 0 0 127 0"/><feOffset dy="0" dx="0"/><feGaussianBlur stdDeviation="0.9000000357627869"/><feComposite in2="hardAlpha" operator="arithmetic" k2="-1" k3="1"/><feColorMatrix type="matrix" values="0 0 0 0 1 0 0 0 0 1 0 0 0 0 1 0 0 0 1 0"/><feBlend mode="normal" in2="shape" result="effect2_innerShadow"/></filter></defs><g clip-path="url(#master_svg0_1612_014660)"><g><g><path d="M0,10.8720221875L0,12.9208421875C0,16.2345421875,2.68629,18.9208421875,6,18.9208421875C7.65685,18.9208421875,9,20.2639421875,9,21.9208421875L9,23.1570421875L13.833,19.7447421875C14.5923,19.2086421875,15.499,18.9208421875,16.4285,18.9208421875L18,18.9208421875C21.3137,18.9208421875,24,16.2345421875,24,12.9208421875L24,10.8720221875C24,6.4268021875,20.3964,2.8232421875,15.9512,2.8232421875L8.04878,2.8232421875C3.60356,2.8232421875,0,6.4268021875,0,10.8720221875Z" fill="url(#master_svg1_1171_57306)" fill-opacity="1"/><path d="M0,10.8720221875L0,12.9208421875C0,16.2345421875,2.68629,18.9208421875,6,18.9208421875C7.65685,18.9208421875,9,20.2639421875,9,21.9208421875L9,23.1570421875L13.833,19.7447421875C14.5923,19.2086421875,15.499,18.9208421875,16.4285,18.9208421875L18,18.9208421875C21.3137,18.9208421875,24,16.2345421875,24,12.9208421875L24,10.8720221875C24,6.4268021875,20.3964,2.8232421875,15.9512,2.8232421875L8.04878,2.8232421875C3.60356,2.8232421875,0,6.4268021875,0,10.8720221875Z" fill="url(#master_svg2_1171_57307)" fill-opacity="1"/><path d="M0,10.8720221875L0,12.9208421875C0,16.2345421875,2.68629,18.9208421875,6,18.9208421875C7.65685,18.9208421875,9,20.2639421875,9,21.9208421875L9,23.1570421875L9.3,22.9452421875L13.833,19.7447421875C14.5923,19.2086421875,15.499,18.9208421875,16.4285,18.9208421875L18,18.9208421875C21.3137,18.9208421875,24,16.2345421875,24,12.9208421875L24,10.8720221875C24,6.4268021875,20.3964,2.8232421875,15.9512,2.8232421875L8.04878,2.8232421875C3.60356,2.8232421875,0,6.4268021875,0,10.8720221875ZM13.66,19.4996421875L9.3,22.5779421875L9.3,21.9208421875Q9.3,20.5539421875,8.33345,19.5873421875Q7.3669,18.6208421875,6,18.6208421875Q3.63898,18.6208421875,1.96949,16.9513421875Q0.3,15.2818421875,0.3,12.9208421875L0.3,10.8720221875Q0.300001,7.6623721875,2.56957,5.392812187500001Q4.83913,3.1232421875,8.04878,3.1232421875L15.9512,3.1232421875Q19.1609,3.1232431875,21.4304,5.392812187500001Q23.7,7.6623721875,23.7,10.8720221875L23.7,12.9208421875Q23.7,15.2818421875,22.0305,16.9513421875Q20.361,18.6208421875,18,18.6208421875L16.4285,18.6208421875Q14.9048,18.6208421875,13.66,19.4996421875Z" fill-rule="evenodd" fill="url(#master_svg3_1171_53542)" fill-opacity="1"/></g><g filter="url(#master_svg4_1612_014669)"><rect x="0" y="0" width="24" height="16.09756088256836" rx="8.04878044128418" fill="url(#master_svg5_1171_57318)" fill-opacity="0.800000011920929"/><rect x="0" y="0" width="24" height="16.09756088256836" rx="8.04878044128418" fill="url(#master_svg6_1171_57319)" fill-opacity="0.800000011920929"/><rect x="0.15000000596046448" y="0.15000000596046448" width="23.69999998807907" height="15.79756087064743" rx="7.898780435323715" stroke="url(#master_svg7_1171_53542)" fill-opacity="0" fill="none" stroke-width="0.30000001192092896"/></g><g filter="url(#master_svg8_1612_014663)"><path d="M6.176054954528809,8.547548681793213L6.176054954528809,7.549688681793213Q6.176054954528809,7.4736586817932125,6.190887354528809,7.399088681793213Q6.2057197545288085,7.324518681793213,6.234814554528809,7.254278681793213Q6.263909454528808,7.184038681793213,6.306148954528808,7.120818681793213Q6.348387954528809,7.057608681793213,6.402147954528808,7.0038486817932135Q6.455907954528809,6.950088681793213,6.519123954528808,6.907848681793213Q6.582338954528809,6.865608681793213,6.652579954528808,6.836518681793213Q6.7228209545288085,6.807418681793212,6.797388954528809,6.792588681793212Q6.871955954528809,6.7777586817932125,6.947984954528809,6.7777586817932125L6.947984954528809,6.7777586817932125Q7.024012954528809,6.7777586817932125,7.098580954528808,6.792588681793212Q7.173147954528808,6.807418681793212,7.243384954528809,6.836518681793213Q7.313634954528808,6.865608681793213,7.376844954528808,6.907848681793213Q7.4400649545288084,6.950088681793213,7.493824954528809,7.0038486817932135Q7.5475849545288085,7.057608681793213,7.589824954528808,7.120818681793213Q7.632054954528808,7.184038681793213,7.661154954528809,7.254278681793213Q7.690244954528809,7.324518681793213,7.705084954528808,7.399088681793213Q7.719914954528809,7.4736586817932125,7.719914954528809,7.549688681793213L7.719914954528809,8.547548681793213Q7.719914954528809,8.623578681793212,7.705084954528808,8.698138681793214Q7.690244954528809,8.772708681793212,7.661154954528809,8.842948681793214Q7.632054954528808,8.913188681793212,7.589824954528808,8.976408681793213Q7.5475849545288085,9.039618681793213,7.493824954528809,9.093378681793212Q7.4400649545288084,9.147138681793212,7.376844954528808,9.189378681793212Q7.313634954528808,9.231618681793213,7.243384954528809,9.260718681793213Q7.173147954528808,9.289808681793213,7.098580954528808,9.304638681793213Q7.024012954528809,9.319478681793214,6.947984954528809,9.319478681793214L6.947984954528809,9.319478681793214Q6.871955954528809,9.319478681793214,6.797388954528809,9.304638681793213Q6.7228209545288085,9.289808681793213,6.652579954528808,9.260718681793213Q6.582338954528809,9.231618681793213,6.519123954528808,9.189378681793212Q6.455907954528809,9.147138681793212,6.402147954528808,9.093378681793212Q6.348387954528809,9.039618681793213,6.306148954528808,8.976408681793213Q6.263909454528808,8.913188681793212,6.234814554528809,8.842948681793214Q6.2057197545288085,8.772708681793212,6.190887354528809,8.698138681793214Q6.176054954528809,8.623578681793212,6.176054954528809,8.547548681793213ZM9.123324954528808,9.536158681793212L9.123324954528808,6.561398681793213Q9.123324954528808,6.485378681793213,9.138154954528808,6.410808681793213Q9.152984954528808,6.336238681793213,9.182084954528808,6.265998681793213Q9.211174954528808,6.195758681793213,9.25341495452881,6.132538681793212Q9.295654954528809,6.069328681793213,9.34941495452881,6.015568681793213Q9.403174954528808,5.961808681793213,9.46638495452881,5.919568681793213Q9.529604954528809,5.877328681793212,9.599844954528809,5.848228681793213Q9.670084954528809,5.819138681793213,9.744654954528809,5.804308681793213Q9.819224954528808,5.789468681793213,9.89525495452881,5.789468681793213L9.89525495452881,5.789468681793213Q9.971274954528809,5.789468681793213,10.045844954528809,5.804308681793213Q10.120414954528808,5.819138681793213,10.190654954528808,5.848228681793213Q10.260894954528808,5.877328681793212,10.32411495452881,5.919568681793213Q10.387324954528808,5.961808681793213,10.441084954528808,6.015568681793213Q10.494844954528809,6.069328681793213,10.537084954528808,6.132538681793212Q10.579324954528808,6.195758681793213,10.608414954528808,6.265998681793213Q10.637514954528807,6.336238681793213,10.652344954528807,6.410808681793213Q10.667174954528807,6.485378681793213,10.667184954528809,6.561398681793213L10.667184954528809,9.536158681793212Q10.667174954528807,9.612188681793214,10.652344954528807,9.686748681793212Q10.637514954528807,9.761318681793213,10.608414954528808,9.831558681793213Q10.579324954528808,9.901798681793213,10.537084954528808,9.965018681793213Q10.494844954528809,10.028228681793212,10.441084954528808,10.081988681793213Q10.387324954528808,10.135748681793213,10.32411495452881,10.177988681793213Q10.260894954528808,10.220228681793213,10.190654954528808,10.249328681793212Q10.120414954528808,10.278418681793212,10.045844954528809,10.293258681793212Q9.971274954528809,10.308088681793212,9.89525495452881,10.308088681793212L9.89525495452881,10.308088681793212Q9.819224954528808,10.308088681793212,9.744654954528809,10.293248681793212Q9.670084954528809,10.278418681793212,9.599844954528809,10.249328681793212Q9.529604954528809,10.220228681793213,9.46638495452881,10.177988681793213Q9.403174954528808,10.135748681793213,9.34941495452881,10.081988681793213Q9.295654954528809,10.028228681793212,9.25341495452881,9.965018681793213Q9.211174954528808,9.901798681793213,9.182074954528808,9.831558681793213Q9.152984954528808,9.761318681793213,9.138154954528808,9.686748681793212Q9.123324954528808,9.612188681793214,9.123324954528808,9.536158681793212ZM12.070584954528808,10.806388681793212L12.070584954528808,5.289918681793213Q12.070584954528808,5.213889681793213,12.085414954528808,5.139322681793213Q12.100254954528808,5.064754681793213,12.129344954528808,4.9945136817932125Q12.158434954528808,4.924272681793213,12.200674954528807,4.861057681793213Q12.242914954528809,4.797841681793213,12.296674954528807,4.7440816817932125Q12.350434954528808,4.690321681793213,12.413654954528809,4.648082681793213Q12.476864954528809,4.605843181793213,12.547114954528809,4.576748281793213Q12.617354954528809,4.547653481793213,12.691914954528809,4.532821081793213Q12.766484954528808,4.517988681793213,12.84251495452881,4.517988681793213L12.84251495452881,4.517988681793213Q12.918544954528809,4.517988681793213,12.993114954528808,4.532821081793213Q13.067674954528808,4.547653481793213,13.137914954528808,4.576748281793213Q13.208164954528808,4.605843181793213,13.27137495452881,4.648082681793213Q13.334594954528809,4.690321681793213,13.388354954528808,4.7440816817932125Q13.442114954528808,4.797841681793213,13.484354954528808,4.861057681793213Q13.526594954528807,4.924272681793213,13.555684954528807,4.9945136817932125Q13.584784954528809,5.064754681793213,13.599614954528809,5.139322681793213Q13.614444954528809,5.213889681793213,13.614444954528809,5.289918681793213L13.614444954528809,10.806388681793212Q13.614444954528809,10.882418681793212,13.599614954528809,10.956988681793213Q13.584784954528809,11.031558681793213,13.555684954528807,11.101798681793213Q13.526594954528807,11.172038681793213,13.484354954528808,11.235248681793212Q13.442114954528808,11.298468681793214,13.388354954528808,11.352228681793214Q13.334594954528809,11.405988681793213,13.27137495452881,11.448228681793214Q13.208164954528808,11.490468681793214,13.13792495452881,11.519558681793214Q13.067674954528808,11.548658681793214,12.993114954528808,11.563488681793213Q12.918544954528809,11.578318681793213,12.84251495452881,11.578318681793213L12.84251495452881,11.578318681793213Q12.766484954528808,11.578318681793213,12.691914954528809,11.563488681793213Q12.617354954528809,11.548658681793214,12.547114954528809,11.519558681793214Q12.476864954528809,11.490468681793214,12.413654954528809,11.448228681793214Q12.350434954528808,11.405988681793213,12.296674954528807,11.352228681793214Q12.242914954528809,11.298468681793214,12.200674954528807,11.235258681793212Q12.158434954528808,11.172038681793213,12.129344954528808,11.101798681793213Q12.100254954528808,11.031558681793213,12.085414954528808,10.956988681793213Q12.070584954528808,10.882418681793212,12.070584954528808,10.806388681793212ZM15.017854954528808,9.536158681793212L15.017854954528808,6.561398681793213Q15.017854954528808,6.485378681793213,15.032684954528808,6.410808681793213Q15.04751495452881,6.336238681793213,15.076614954528809,6.265998681793213Q15.10570495452881,6.195758681793213,15.147944954528809,6.132538681793212Q15.190184954528808,6.069328681793213,15.243944954528809,6.015568681793213Q15.29770495452881,5.961808681793213,15.360914954528809,5.919568681793213Q15.424134954528808,5.877328681793212,15.494374954528809,5.848228681793213Q15.564614954528809,5.819138681793213,15.639184954528808,5.804308681793213Q15.713754954528808,5.789468681793213,15.789784954528809,5.789468681793213L15.789784954528809,5.789468681793213Q15.865814954528808,5.789468681793213,15.940374954528808,5.804308681793213Q16.014944954528808,5.819138681793213,16.085184954528806,5.848228681793213Q16.155424954528808,5.877328681793212,16.21865495452881,5.919568681793213Q16.28185495452881,5.961808681793213,16.335654954528806,6.015568681793213Q16.38935495452881,6.069328681793213,16.43165495452881,6.132538681793212Q16.47385495452881,6.195758681793213,16.50295495452881,6.265998681793213Q16.53205495452881,6.336238681793213,16.546854954528808,6.410808681793213Q16.56175495452881,6.485378681793213,16.56175495452881,6.561398681793213L16.56175495452881,9.536158681793212Q16.56175495452881,9.612188681793214,16.546854954528808,9.686748681793212Q16.53205495452881,9.761318681793213,16.50295495452881,9.831558681793213Q16.47385495452881,9.901798681793213,16.43165495452881,9.965018681793213Q16.38935495452881,10.028228681793212,16.335654954528806,10.081988681793213Q16.28185495452881,10.135748681793213,16.21865495452881,10.177988681793213Q16.155424954528808,10.220228681793213,16.085184954528806,10.249328681793212Q16.014944954528808,10.278418681793212,15.940374954528808,10.293258681793212Q15.865814954528808,10.308088681793212,15.789784954528809,10.308088681793212L15.789784954528809,10.308088681793212Q15.713754954528808,10.308088681793212,15.639184954528808,10.293248681793212Q15.564614954528809,10.278418681793212,15.494374954528809,10.249328681793212Q15.424134954528808,10.220228681793213,15.360914954528809,10.177988681793213Q15.29770495452881,10.135748681793213,15.243944954528809,10.081988681793213Q15.190184954528808,10.028228681793212,15.147944954528809,9.965018681793213Q15.10570495452881,9.901798681793213,15.076614954528809,9.831558681793213Q15.04751495452881,9.761318681793213,15.032684954528808,9.686748681793212Q15.017854954528808,9.612188681793214,15.017854954528808,9.536158681793212ZM17.965154954528806,8.547548681793213L17.965154954528806,7.549688681793213Q17.965154954528806,7.4736586817932125,17.979954954528807,7.399088681793213Q17.99475495452881,7.324518681793213,18.023854954528808,7.254278681793213Q18.052954954528808,7.184038681793213,18.09525495452881,7.120818681793213Q18.137454954528806,7.057608681793213,18.19125495452881,7.0038486817932135Q18.244954954528808,6.950088681793213,18.30815495452881,6.907848681793213Q18.371354954528808,6.865608681793213,18.441654954528808,6.836518681793213Q18.511854954528808,6.807418681793212,18.586454954528808,6.792588681793212Q18.661054954528808,6.7777586817932125,18.73705495452881,6.7777586817932125L18.73705495452881,6.7777586817932125Q18.81305495452881,6.7777586817932125,18.88765495452881,6.792588681793212Q18.96225495452881,6.807418681793212,19.03245495452881,6.836518681793213Q19.10265495452881,6.865608681793213,19.165954954528807,6.907848681793213Q19.22915495452881,6.950088681793213,19.28285495452881,7.0038486817932135Q19.33665495452881,7.057608681793213,19.37885495452881,7.120818681793213Q19.42115495452881,7.184038681793213,19.45025495452881,7.254278681793213Q19.47935495452881,7.324518681793213,19.49415495452881,7.399088681793213Q19.50895495452881,7.4736586817932125,19.50895495452881,7.549688681793213L19.50895495452881,8.547548681793213Q19.50895495452881,8.623578681793212,19.49415495452881,8.698138681793214Q19.47935495452881,8.772708681793212,19.45025495452881,8.842948681793214Q19.42115495452881,8.913188681793212,19.37885495452881,8.976408681793213Q19.33665495452881,9.039618681793213,19.28285495452881,9.093378681793212Q19.22915495452881,9.147138681793212,19.165954954528807,9.189378681793212Q19.10265495452881,9.231618681793213,19.03245495452881,9.260718681793213Q18.96225495452881,9.289808681793213,18.88765495452881,9.304638681793213Q18.81305495452881,9.319478681793214,18.73705495452881,9.319478681793214L18.73705495452881,9.319478681793214Q18.661054954528808,9.319478681793214,18.586454954528808,9.304638681793213Q18.511854954528808,9.289808681793213,18.441654954528808,9.260718681793213Q18.371354954528808,9.231618681793213,18.30815495452881,9.189378681793212Q18.244954954528808,9.147138681793212,18.19125495452881,9.093378681793212Q18.137454954528806,9.039618681793213,18.09525495452881,8.976408681793213Q18.052954954528808,8.913188681793212,18.023854954528808,8.842948681793214Q17.99475495452881,8.772708681793212,17.979954954528807,8.698138681793214Q17.965154954528806,8.623578681793212,17.965154954528806,8.547548681793213Z" fill="#FFFFFF" fill-opacity="0.7599999904632568"/></g></g></g></svg>