<svg xmlns="http://www.w3.org/2000/svg" xmlns:xlink="http://www.w3.org/1999/xlink" fill="none" version="1.1" width="16" height="16" viewBox="0 0 16 16"><g><g><g style="opacity:0.20000000298023224;"><path d="M15.33320390625,7.9999559765625Q15.33320390625,8.179985976562499,15.32430390625,8.359785976562499Q15.31550390625,8.539595976562499,15.29790390625,8.7187559765625Q15.28020390625,8.8979059765625,15.25380390625,9.0759859765625Q15.22740390625,9.2540559765625,15.19230390625,9.4306259765625Q15.15710390625,9.6071859765625,15.11340390625,9.7818159765625Q15.06970390625,9.9564459765625,15.01740390625,10.1287159765625Q14.96510390625,10.3009859765625,14.90450390625,10.4704859765625Q14.84380390625,10.6399859765625,14.77490390625,10.8063259765625Q14.70610390625,10.9726259765625,14.62910390625,11.1353259765625Q14.55210390625,11.2981259765625,14.46730390625,11.4568259765625Q14.38240390625,11.6156259765625,14.28980390625,11.7700259765625Q14.19730390625,11.9244259765625,14.09730390625,12.0741259765625Q13.99730390625,12.2238259765625,13.89000390625,12.3684259765625Q13.78280390625,12.5130259765625,13.66860390625,12.6522259765625Q13.55440390625,12.7913259765625,13.43350390625,12.9247259765625Q13.31260390625,13.0581259765625,13.18530390625,13.1854259765625Q13.05800390625,13.3127259765625,12.92460390625,13.4336259765625Q12.79120390625,13.5545259765625,12.65210390625,13.6687259765625Q12.51290390625,13.7829259765625,12.36830390625,13.8901259765625Q12.22370390625,13.9974259765625,12.07400390625,14.0974259765625Q11.92430390625,14.1974259765625,11.76990390625,14.2899259765625Q11.61550390625,14.3825259765625,11.45670390625,14.4674259765625Q11.29800390625,14.5522259765625,11.13520390625,14.6292259765625Q10.97250390625,14.7062259765625,10.80620390625,14.7750259765625Q10.63986390625,14.8439259765625,10.47036390625,14.9046259765625Q10.30086390625,14.9652259765625,10.12859390625,15.0175259765625Q9.95631390625,15.0698259765625,9.78169390625,15.1135259765625Q9.60706390625,15.1572259765625,9.43050390625,15.1924259765625Q9.25393390625,15.2275259765625,9.07586390625,15.2539259765625Q8.89778390625,15.2803259765625,8.71863390625,15.2980259765625Q8.539473906249999,15.3156259765625,8.359663906249999,15.3244259765625Q8.179863906249999,15.3333259765625,7.99983390625,15.3333259765625Q7.81981390625,15.3333259765625,7.64000390625,15.3244259765625Q7.46020390625,15.3156259765625,7.28104390625,15.2980259765625Q7.10188390625,15.2803259765625,6.92381390625,15.2539259765625Q6.74574390625,15.2275259765625,6.56917390625,15.1924259765625Q6.39261390625,15.1572259765625,6.21798390625,15.1135259765625Q6.04335390625,15.0698259765625,5.87108390625,15.0175259765625Q5.69881390625,14.9652259765625,5.52931390625,14.9046259765625Q5.35981390625,14.8439259765625,5.19349390625,14.7750259765625Q5.02717390625,14.7062259765625,4.86443390625,14.6292259765625Q4.70169390625,14.5522259765625,4.5429239062499995,14.4674259765625Q4.38416390625,14.3825259765625,4.22975390625,14.2899259765625Q4.07534390625,14.1974259765625,3.92565390625,14.0974259765625Q3.77597390625,13.9974259765625,3.63137390625,13.8901259765625Q3.48678390625,13.7829259765625,3.34762390625,13.6687259765625Q3.20846390625,13.5545259765625,3.07507390625,13.4336259765625Q2.94168390625,13.3127259765625,2.81438390625,13.1854259765625Q2.68709390625,13.0581259765625,2.56619390625,12.9247259765625Q2.44530390625,12.7913259765625,2.33109390625,12.6522259765625Q2.21688390625,12.5130259765625,2.10964390625,12.3684259765625Q2.00240390625,12.2238259765625,1.90239390625,12.0741259765625Q1.80237390625,11.9244259765625,1.70982390625,11.7700259765625Q1.6172769062499999,11.6156259765625,1.53241490625,11.4568259765625Q1.44755190625,11.2981259765625,1.37058190625,11.1353259765625Q1.29361290625,10.9726259765625,1.22472090625,10.8063259765625Q1.15582890625,10.6399859765625,1.09518090625,10.4704859765625Q1.03453290625,10.3009859765625,0.98227490625,10.1287159765625Q0.93001690625,9.9564359765625,0.8862749062499999,9.7818159765625Q0.84253290625,9.6071859765625,0.80741190625,9.4306259765625Q0.77229090625,9.2540559765625,0.74587620625,9.0759859765625Q0.71946130625,8.8979059765625,0.70181590625,8.7187559765625Q0.68417050625,8.539595976562499,0.67533722625,8.359785976562499Q0.66650390625,8.179985976562499,0.66650390625,7.9999559765625Q0.66650390625,7.8199359765625,0.67533722625,7.6401259765625Q0.68417050625,7.4603259765625,0.70181590625,7.2811659765625Q0.71946130625,7.1020059765625,0.74587620625,6.9239359765625Q0.77229090625,6.7458659765625,0.80741190625,6.5692959765625Q0.84253290625,6.3927359765625,0.8862749062499999,6.2181059765625Q0.93001690625,6.0434759765625,0.98227490625,5.8712059765625Q1.03453290625,5.6989359765625,1.09518090625,5.5294359765625Q1.15582890625,5.3599359765625,1.22472090625,5.1936159765625Q1.29361290625,5.0272959765625,1.37058190625,4.8645559765625Q1.44755190625,4.7018159765625,1.53241490625,4.5430459765624995Q1.6172769062499999,4.3842859765625,1.70982390625,4.2298759765625Q1.80237390625,4.0754659765625,1.90239390625,3.9257759765625Q2.00240390625,3.7760959765625,2.10964390625,3.6314959765625Q2.21688390625,3.4869059765625,2.33109390625,3.3477459765625Q2.44530390625,3.2085859765625,2.56619390625,3.0751959765625Q2.68709390625,2.9418059765625,2.81438390625,2.8145059765625Q2.94168390625,2.6872159765625,3.07507390625,2.5663159765625Q3.20846390625,2.4454259765625,3.34762390625,2.3312159765625Q3.48678390625,2.2170059765625,3.63137390625,2.1097659765625Q3.77597390625,2.0025259765625,3.92565390625,1.9025159765625Q4.07534390625,1.8024959765625,4.22975390625,1.7099459765625Q4.38416390625,1.6173989765624999,4.5429239062499995,1.5325369765625Q4.70169390625,1.4476739765625,4.86443390625,1.3707039765625Q5.02717390625,1.2937349765625,5.19349390625,1.2248429765625Q5.35981390625,1.1559509765625,5.52931390625,1.0953029765625Q5.69881390625,1.0346549765625,5.87108390625,0.9823969765625Q6.04335390625,0.9301389765625,6.21798390625,0.8863969765624999Q6.39261390625,0.8426549765625,6.56917390625,0.8075339765625Q6.74574390625,0.7724129765625,6.92381390625,0.7459982765625Q7.10188390625,0.7195833765625,7.28104390625,0.7019379765625Q7.46020390625,0.6842925765625,7.64000390625,0.6754592965625Q7.81981390625,0.6666259765625,7.99983390625,0.6666259765625Q8.179863906249999,0.6666259765625,8.359663906249999,0.6754592965625Q8.539473906249999,0.6842925765625,8.71863390625,0.7019379765625Q8.89778390625,0.7195833765625,9.07586390625,0.7459982765625Q9.25393390625,0.7724129765625,9.43050390625,0.8075339765625Q9.60706390625,0.8426549765625,9.78169390625,0.8863969765624999Q9.95632390625,0.9301389765625,10.12859390625,0.9823969765625Q10.30086390625,1.0346549765625,10.47036390625,1.0953029765625Q10.63986390625,1.1559509765625,10.80620390625,1.2248429765625Q10.97250390625,1.2937349765625,11.13520390625,1.3707039765625Q11.29800390625,1.4476739765625,11.45670390625,1.5325369765625Q11.61550390625,1.6173989765624999,11.76990390625,1.7099459765625Q11.92430390625,1.8024959765625,12.07400390625,1.9025159765625Q12.22370390625,2.0025259765625,12.36830390625,2.1097659765625Q12.51290390625,2.2170059765625,12.65210390625,2.3312159765625Q12.79120390625,2.4454259765625,12.92460390625,2.5663159765625Q13.05800390625,2.6872159765625,13.18530390625,2.8145059765625Q13.31260390625,2.9418059765625,13.43350390625,3.0751959765625Q13.55440390625,3.2085859765625,13.66860390625,3.3477459765625Q13.78280390625,3.4869059765625,13.89000390625,3.6314959765625Q13.99730390625,3.7760959765625,14.09730390625,3.9257759765625Q14.19730390625,4.0754659765625,14.28980390625,4.2298759765625Q14.38240390625,4.3842859765625,14.46730390625,4.5430459765624995Q14.55210390625,4.7018159765625,14.62910390625,4.8645559765625Q14.70610390625,5.0272959765625,14.77490390625,5.1936159765625Q14.84380390625,5.3599359765625,14.90450390625,5.5294359765625Q14.96510390625,5.6989359765625,15.01740390625,5.8712059765625Q15.06970390625,6.0434759765625,15.11340390625,6.2181059765625Q15.15710390625,6.3927359765625,15.19230390625,6.5692959765625Q15.22740390625,6.7458659765625,15.25380390625,6.9239359765625Q15.28020390625,7.1020059765625,15.29790390625,7.2811659765625Q15.31550390625,7.4603259765625,15.32430390625,7.6401259765625Q15.33320390625,7.8199359765625,15.33320390625,7.9999559765625Z" fill="#4B4B4B" fill-opacity="1"/></g><g><path d="M10.85450390625,1.2432049765625Q9.49137390625,0.6666259765625,7.99983390625,0.6666259765625Q6.50830390625,0.6666259765625,5.14518390625,1.2432049765625Q3.82910390625,1.7998859765625,2.81445390625,2.8144959765625Q1.79980390625,3.8291459765625,1.24300090625,5.1453059765625Q0.66650390625,6.5084259765625,0.66650390625,7.9999559765625Q0.66650390625,9.4914959765625,1.24300090625,10.8546259765625Q1.79980390625,12.1708259765625,2.81445390625,13.1854259765625Q3.82910390625,14.2000259765625,5.14518390625,14.7567259765625Q6.50830390625,15.3333259765625,7.99983390625,15.3333259765625Q9.49137390625,15.3333259765625,10.85450390625,14.7567259765625Q12.17060390625,14.2000259765625,13.18520390625,13.1854259765625Q14.19990390625,12.1708259765625,14.75670390625,10.8546259765625Q15.33320390625,9.4914959765625,15.33320390625,7.9999559765625Q15.33320390625,6.5084259765625,14.75670390625,5.1453059765625Q14.19990390625,3.8291459765625,13.18520390625,2.8144959765625Q12.17060390625,1.7998859765625,10.85450390625,1.2432049765625ZM5.66455390625,2.4711959765625Q6.77864390625,1.9999559765625,7.99983390625,1.9999559765625Q9.22103390625,1.9999559765625,10.33512390625,2.4711959765625Q11.41180390625,2.9265559765625,12.24250390625,3.7573259765625Q13.07320390625,4.5880559765625,13.52860390625,5.6646759765625Q13.99980390625,6.7788059765625,13.99980390625,7.9999559765625Q13.99980390625,9.2211059765625,13.52860390625,10.3352459765625Q13.07320390625,11.4118259765625,12.24250390625,12.2426259765625Q11.41180390625,13.0733259765625,10.33512390625,13.5287259765625Q9.22103390625,13.9999259765625,7.99983390625,13.9999259765625Q6.77864390625,13.9999259765625,5.66455390625,13.5287259765625Q4.587893906250001,13.0733259765625,3.75716390625,12.2426259765625Q2.92643390625,11.4118259765625,2.47102390625,10.3352459765625Q1.99983390625,9.2211059765625,1.99983390625,7.9999559765625Q1.99983390625,6.7788059765625,2.47102390625,5.6646759765625Q2.92643390625,4.5880559765625,3.75716390625,3.7573259765625Q4.587893906250001,2.9265559765625,5.66455390625,2.4711959765625ZM7.33561390625,4.0010159765625C7.33577390625,3.6329759765625,7.63427390625,3.3347559765625,8.00227390625,3.3347559765625C8.37044390625,3.3347559765625,8.66894390625,3.6332159765625,8.66894390625,4.0014259765624995L8.66894390625,4.0018359765625L8.66666390625,7.7240759765625L11.13920390625,10.1974659765625L11.13950390625,10.1977959765625C11.26450390625,10.3227959765625,11.33460390625,10.4923459765625,11.33460390625,10.6691259765625C11.33460390625,11.0373259765625,11.03610390625,11.3357259765625,10.66800390625,11.3357259765625C10.49104390625,11.3357259765625,10.32145390625,11.2655259765625,10.19645390625,11.1404259765625L10.19612390625,11.1401259765625L7.52832390625,8.471275976562499C7.40332390625,8.3461459765625,7.33300390625,8.1764759765625,7.33317390625,7.9995559765625L7.33561390625,4.0014259765624995L7.33561390625,4.0010159765625Z" fill-rule="evenodd" fill="#4B4B4B" fill-opacity="1"/></g></g></g></svg>