<?xml version="1.0" standalone="no"?><!DOCTYPE svg PUBLIC "-//W3C//DTD SVG 1.1//EN" "http://www.w3.org/Graphics/SVG/1.1/DTD/svg11.dtd"><svg t="1745313089386" class="icon" viewBox="0 0 1024 1024" version="1.1" xmlns="http://www.w3.org/2000/svg" p-id="1484" xmlns:xlink="http://www.w3.org/1999/xlink" width="200" height="200"><path d="M512 576a64 64 0 1 0 0-128 64 64 0 0 0 0 128z" p-id="1485" fill="#a0b5f5"></path><path d="M622.56 872.832c-35.648-12.96-72.896-31.168-110.56-54.048-37.664 22.88-74.912 41.088-110.56 54.048-87.52 31.808-176.8 35.616-231.36-18.944-54.528-54.528-50.72-143.808-18.88-231.36 12.928-35.616 31.136-72.864 54.016-110.528-22.88-37.664-41.088-74.912-54.048-110.56-31.808-87.52-35.616-176.8 18.944-231.36 54.528-54.528 143.808-50.72 231.36-18.88 35.616 12.928 72.864 31.136 110.528 54.016 37.664-22.88 74.912-41.088 110.56-54.048 87.52-31.808 176.8-35.616 231.36 18.944 54.528 54.528 50.72 143.808 18.88 231.36-12.928 35.616-31.136 72.864-54.016 110.528 22.88 37.664 41.088 74.912 54.048 110.56 31.808 87.52 35.616 176.8-18.944 231.36-54.528 54.528-143.808 50.72-231.36 18.88zM816 380.8c30.016-82.624 23.2-139.904-4.864-167.968-28.096-28.064-85.344-34.88-167.968-4.864-24.032 8.768-49.28 20.352-75.136 34.592a965.696 965.696 0 0 1 114.88 98.496 965.408 965.408 0 0 1 98.496 114.88c14.24-25.856 25.824-51.104 34.56-75.136z m-175.808 2.976A888.928 888.928 0 0 0 512 277.056c-42.88 29.12-86.4 64.896-128.224 106.72A889.024 889.024 0 0 0 277.056 512c29.12 42.88 64.896 86.4 106.72 128.224A889.024 889.024 0 0 0 512 746.944c42.88-29.12 86.4-64.896 128.224-106.72A888.864 888.864 0 0 0 746.944 512c-29.12-42.88-64.896-86.4-106.72-128.224z m42.72 299.2a965.632 965.632 0 0 1-114.88 98.464c25.856 14.24 51.104 25.824 75.136 34.56 82.624 30.08 139.904 23.232 167.968-4.832 28.064-28.064 34.88-85.344 4.864-167.968a537.44 537.44 0 0 0-34.592-75.168 965.44 965.44 0 0 1-98.496 114.912z m-341.888 0a965.312 965.312 0 0 1-98.496-114.912A537.44 537.44 0 0 0 208 643.2c-30.08 82.624-23.232 139.904 4.832 167.968 28.064 28.064 85.344 34.88 167.968 4.864 24.032-8.768 49.28-20.352 75.136-34.592a965.632 965.632 0 0 1-114.88-98.496zM207.968 380.8c8.768 24.032 20.352 49.28 34.592 75.136a965.12 965.12 0 0 1 98.496-114.88 965.44 965.44 0 0 1 114.88-98.496A537.12 537.12 0 0 0 380.8 208c-82.624-30.08-139.872-23.232-167.968 4.832-28.064 28.064-34.88 85.344-4.864 167.968z" p-id="1486" fill="#a0b5f5"></path></svg>