<svg xmlns="http://www.w3.org/2000/svg" xmlns:xlink="http://www.w3.org/1999/xlink" fill="none" version="1.1" width="20" height="20" viewBox="0 0 20 20"><defs><clipPath id="master_svg0_9_0843"><rect x="0" y="0" width="20" height="20" rx="0"/></clipPath></defs><g clip-path="url(#master_svg0_9_0843)"><g><path d="M19.53390234375,4.01989125C19.32910234375,3.9174912500000003,19.24060234375,4.11269125,19.12100234375,4.21189125C19.08020234375,4.24389125,19.04550234375,4.28549125,19.01060234375,4.32389125C18.71140234375,4.65029125,18.36190234375,4.86469125,17.90460234375,4.83909125C17.23670234375,4.80069125,16.66630234375,5.015091249999999,16.16230234375,5.5366912500000005C16.05510234375,4.89349125,15.69910234375,4.50949125,15.15700234375,4.26309125C14.87310234375,4.13509125,14.58670234375,4.00709125,14.38780234375,3.72868925C14.24950234375,3.53028925,14.21190234375,3.30948925,14.14230234375,3.09188925C14.09830234375,2.96068925,14.05430234375,2.82618925,13.90630234375,2.80388908C13.74510234375,2.77828905,13.68230234375,2.91588925,13.61910234375,3.03108925C13.36710234375,3.50148925,13.26910234375,4.01989125,13.27910234375,4.54469125C13.30060234375,5.72549125,13.78950234375,6.6662912500000004,14.75990234375,7.33519125C14.87030234375,7.41199125,14.89870234375,7.48879125,14.86390234375,7.60079125C14.79790234375,7.83109125,14.71870234375,8.05509125,14.64950234375,8.28549125C14.60550234375,8.432691250000001,14.53950234375,8.46469125,14.38460234375,8.400691250000001C13.85230234375,8.17349125,13.39230234375,7.83749125,12.98560234375,7.43119125C12.29560234375,6.74949125,11.67140234375,5.9974912499999995,10.89360234375,5.40869125C10.71340234375,5.27290125,10.52830234375,5.14375125,10.33866234375,5.02149125C9.54466234375,4.23429125,10.44270234375,3.58788825,10.65070234375,3.5110882500000002C10.86780234375,3.43108825,10.72630234375,3.15588825,10.02346234375,3.15908825C9.32066234375,3.16228825,8.67786234375,3.40228825,7.85866234375,3.72228825C7.73866234375,3.77028825,7.61266234375,3.80549125,7.48386234375,3.8342912499999997C6.73986234375,3.69028825,5.96786234375,3.65828825,5.16106234375,3.75108825C3.64226234375,3.92389125,2.42906234375,4.65669125,1.53706234375,5.9078912500000005C0.46586534375,7.41189125,0.21346534375,9.12069125,0.52266534375,10.90309125C0.84666534375,12.78149125,1.78626234375,14.33668125,3.22946234375,15.55268125C4.72626234375,16.813481250000002,6.44986234375,17.43108125,8.41626234375,17.31268125C9.61066234375,17.242281249999998,10.94030234375,17.07908125,12.44030234375,15.78308125C12.81870234375,15.97508125,13.21590234375,16.05198125,13.87430234375,16.10948125C14.38190234375,16.15748125,14.87030234375,16.083881249999997,15.24830234375,16.00388125C15.84060234375,15.87588125,15.79950234375,15.31588125,15.58550234375,15.21348125C13.84910234375,14.38788125,14.23020234375,14.72388125,13.88380234375,14.45198125C14.76630234375,13.38628125,16.095902343749998,12.27909125,16.61590234375,8.691991250000001C16.65700234375,8.40709125,16.62230234375,8.227891249999999,16.61590234375,7.99749125C16.61270234375,7.85669125,16.64390234375,7.80229125,16.80190234375,7.78629125C17.23670234375,7.73509125,17.65910234375,7.61349125,18.04670234375,7.39589125C19.17140234375,6.76869125,19.62550234375,5.73829125,19.73270234375,4.50309125C19.74870234375,4.31429125,19.72950234375,4.11909125,19.53390234375,4.01989125L19.53390234375,4.01989125ZM9.73016234375,15.13668125C8.04776234375,13.78638125,7.23136234375,13.34148125,6.89416234375,13.36068125C6.57896234375,13.37988125,6.63576234375,13.74788125,6.70496234375,13.98788125C6.77736234375,14.22468125,6.87216234375,14.38788125,7.00456234375,14.59588125C7.09576234375,14.73348125,7.15896234375,14.93828125,6.91296234375,15.09188125C6.37096234375,15.43428125,5.42896234375,14.97668125,5.38496234375,14.95428125C4.28816234375,14.29508125,3.37096234375,13.42468125,2.72496234375,12.23429125C2.10096234375,11.08879125,1.73896234375,9.85989125,1.67896234375,8.54789125C1.66296234375,8.23109125,1.75456234375,8.11919125,2.0629623437499998,8.06149125C2.46907234375,7.98187125,2.88567234375,7.97106125,3.29536234375,8.02949125C5.01296234375,8.28549125,6.47536234375,9.069491249999999,7.70096234375,10.31109125C8.40056234375,11.01829125,8.92976234375,11.86309125,9.47536234375,12.68879125C10.05496234375,13.56558125,10.67900234375,14.40068125,11.47300234375,15.08558125C11.75340234375,15.32558125,11.97700234375,15.50788125,12.19130234375,15.64238125C11.54540234375,15.71598125,10.46730234375,15.73198125,9.73016234375,15.13668125ZM10.53690234375,9.840691249999999C10.53690234375,9.69989125,10.64730234375,9.58789125,10.78620234375,9.58789125C10.81760234375,9.58849125,10.84590234375,9.593791249999999,10.87090234375,9.60389125C10.96870234375,9.64145125,11.03290234375,9.73589125,11.03180234375,9.840691249999999C11.03230234375,9.89036125,11.01810234375,9.93906125,10.99100234375,9.98069125C10.94490234375,10.05078125,10.86680234375,10.09314125,10.78300234375,10.09349125C10.75010234375,10.09337125,10.71760234375,10.08674125,10.68730234375,10.073991249999999C10.64180234375,10.054511250000001,10.60320234375,10.02197125,10.57630234375,9.98049125C10.54950234375,9.938851249999999,10.53580234375,9.89017125,10.53690234375,9.840691249999999ZM13.04220234375,11.15269125C12.88180234375,11.21989125,12.72090234375,11.27749125,12.56620234375,11.28389125C12.32690234375,11.29669125,12.06540234375,11.19749125,11.92370234375,11.07589125C11.70300234375,10.88709125,11.54540234375,10.78149125,11.47940234375,10.45189125C11.45090234375,10.31109125,11.46660234375,10.09349125,11.49180234375,9.968791249999999C11.54860234375,9.69989125,11.48540234375,9.52709125,11.29980234375,9.370291250000001C11.14860234375,9.242291250000001,10.95620234375,9.207091250000001,10.74500234375,9.207091250000001C10.66620234375,9.207091250000001,10.59370234375,9.17199125,10.54020234375,9.143091250000001C10.51400234375,9.13069125,10.49070234375,9.11294125,10.47190234375,9.09099125C10.45290234375,9.06915125,10.43860234375,9.04357125,10.43020234375,9.01589125C10.42150234375,8.98823125,10.41880234375,8.959071250000001,10.42220234375,8.93029125C10.42530234375,8.90159125,10.43440234375,8.87379125,10.44900234375,8.84879125C10.47100234375,8.80389125,10.57810234375,8.69509125,10.60340234375,8.67599125C10.89020234375,8.50959125,11.22090234375,8.56399125,11.52660234375,8.688791250000001C11.81020234375,8.80709125,12.02410234375,9.02479125,12.33340234375,9.33199125C12.64860234375,9.70309125,12.70540234375,9.805591249999999,12.88450234375,10.08399125C13.02660234375,10.30149125,13.15580234375,10.52559125,13.24370234375,10.78149125C13.29770234375,10.94149125,13.22810234375,11.07279125,13.04220234375,11.15269125L13.04220234375,11.15269125Z" fill="#4D6BFE" fill-opacity="1" style="mix-blend-mode:passthrough"/></g></g></svg>