<svg xmlns="http://www.w3.org/2000/svg" xmlns:xlink="http://www.w3.org/1999/xlink" fill="none" version="1.1" width="76" height="22" viewBox="0 0 76 22"><g><g><g><g></g><g><path d="M5,13L12,13L12,17.31969C12,17.69543,11.7151,18,11.36364,18L5.636364,18C5.284906,18,5,17.69543,5,17.31969L5,13Z" fill="#2C54D1" fill-opacity="0.3199999928474426"/></g><g><path d="M15,9.5C15,12.97511,12.3535,15.8133,9.02397,15.9912L9.02397,16L8.691970000000001,16L3.71194,16C3.34522,16,3.04794,15.6937,3.04794,15.3158L3.04794,12.42698L1.52033,12.07722C1.109419,11.98314,0.886088,11.52383,1.0589346,11.12835L2.96784,6.76067L2.96828,6.7641100000000005C3.97064,4.54126,6.15667,3,8.691970000000001,3C12.1758,3,15,5.91015,15,9.5Z" fill-rule="evenodd" fill="#2C54D1" fill-opacity="1"/></g><g><path d="M8.941403125,11.5L10.970703125,11.5L10.970703125,7.5L9.970703125,7.5L9.970703125,11.5L8.570313125,7.5L7.371093125,7.5L5.970703125,11.5L7.000003125,11.5L7.206053125,10.87109L8.735353125,10.87109L8.941403125,11.5ZM7.488283125,10.01562L7.970703125,8.54688L8.453123125,10.01562L7.488283125,10.01562Z" fill-rule="evenodd" fill="#FFFFFF" fill-opacity="1"/></g></g></g><g><path d="M22.394,4.912L22.394,11.758L31.55,11.758L31.55,4.912L22.394,4.912ZM30.108,10.358L27.644,10.358L27.644,8.986L30.108,8.986L30.108,10.358ZM26.272,10.358L23.836,10.358L23.836,8.986L26.272,8.986L26.272,10.358ZM23.836,7.698L23.836,6.284L26.272,6.284L26.272,7.698L23.836,7.698ZM27.644,6.284L30.108,6.284L30.108,7.698L27.644,7.698L27.644,6.284ZM21.96,12.738C21.666,13.984,21.176,15.16,20.476,16.266L21.75,17.064C22.436,15.93,22.968,14.586,23.346,13.032L21.96,12.738ZM27.462,11.996L26.146,12.43C26.622,13.172,27.042,14.026,27.434,14.992L28.778,14.39C28.414,13.536,27.966,12.738,27.462,11.996ZM31.592,12.374L30.192,12.822C30.892,13.914,31.522,15.16,32.096000000000004,16.56L33.454,15.958C32.922,14.684,32.292,13.494,31.592,12.374ZM29.142,17.288C29.674,17.288,30.08,17.162,30.332,16.938C30.612000000000002,16.7,30.808,15.944,30.92,14.656L29.52,14.194C29.478,15.006,29.408,15.496,29.296,15.664C29.212,15.818,29.072,15.902,28.875999999999998,15.902L25.894,15.902C25.488,15.902,25.292,15.72,25.292,15.356L25.292,12.654L23.836,12.654L23.836,15.664C23.836,16.742,24.368000000000002,17.288,25.445999999999998,17.288L29.142,17.288ZM36.072,5.752L36.072,7.096L39.67,7.096L39.67,8.188L35.036,8.188L35.036,9.574L40.09,9.574C38.438,10.526,36.562,11.31,34.462,11.926L35.064,13.242C36.086,12.934,37.066,12.57,38.004000000000005,12.178L37.416,14.25L44.36,14.25C44.29,15.006,44.178,15.482,44.038,15.692C43.870000000000005,15.888,43.436,15.986,42.763999999999996,15.986C42.204,15.986,41.56,15.944,40.86,15.874L41.322,17.148C41.84,17.218,42.428,17.26,43.086,17.26C44.094,17.26,44.78,17.064,45.129999999999995,16.686C45.480000000000004,16.294,45.704,15.062,45.816,12.976L39.152,12.976L39.501999999999995,11.94L46.46,11.94L46.46,10.638L41.042,10.638C41.602000000000004,10.302,42.134,9.938,42.652,9.574L47.216,9.574L47.216,8.188L44.346000000000004,8.188C45.214,7.39,45.998000000000005,6.508,46.698,5.556L45.620000000000005,4.758C45.2,5.318,44.724000000000004,5.878,44.192,6.424L44.192,5.752L41.126000000000005,5.752L41.126000000000005,4.478L39.67,4.478L39.67,5.752L36.072,5.752ZM42.176,8.188L41.126000000000005,8.188L41.126000000000005,7.096L43.492000000000004,7.096C43.086,7.46,42.652,7.824,42.176,8.188ZM49.876000000000005,4.618L48.882000000000005,5.57C49.89,6.382,50.66,7.152,51.206,7.852L52.27,6.788C51.611999999999995,6.06,50.814,5.346,49.876000000000005,4.618ZM58.234,17.232L61.202,17.232L61.552,15.762C61.202,15.79,60.684,15.818,60.012,15.846C59.34,15.86,58.682,15.874,58.038,15.874C56.904,15.874,55.91,15.86,55.07,15.846C54.202,15.818,53.558,15.692,53.124,15.496C52.788,15.314,52.438,15.034,52.102,14.67C52.046,14.614,51.989999999999995,14.572,51.934,14.516L51.934,9.196L48.672,9.196L48.672,10.568L50.548,10.568L50.548,14.404C49.988,14.712,49.344,15.44,48.644,16.588L49.722,17.582C50.436,16.294,50.926,15.65,51.206,15.65C51.373999999999995,15.65,51.57,15.762,51.766,16C52.186,16.476,52.69,16.798,53.292,16.966C53.894,17.106,54.678,17.19,55.63,17.204C56.568,17.218,57.436,17.232,58.234,17.232ZM57.828,15.328C58.836,15.328,59.34,14.824,59.34,13.83L59.34,8.062L61.286,8.062L61.286,6.634L59.34,6.634L59.34,4.534L57.884,4.534L57.884,6.634L52.648,6.634L52.648,8.062L57.884,8.062L57.884,13.466C57.884,13.83,57.688,14.026,57.324,14.026C56.764,14.026,56.162,13.984,55.546,13.928L55.868,15.328L57.828,15.328ZM54.496,9L53.362,9.7C54.174,10.736,54.804,11.66,55.28,12.472L56.456,11.66C55.994,10.904,55.336,10.008,54.496,9ZM68.37,4.94L68.37,9.252L74.656,9.252L74.656,4.94L68.37,4.94ZM73.24199999999999,7.964L69.798,7.964L69.798,6.228L73.24199999999999,6.228L73.24199999999999,7.964ZM67.99199999999999,10.26L67.99199999999999,11.576L70.694,11.576L70.694,12.892L68.314,12.892L68.314,14.194L70.694,14.194L70.694,15.622L67.46000000000001,15.622L67.46000000000001,16.994L75.398,16.994L75.398,15.622L72.178,15.622L72.178,14.194L74.628,14.194L74.628,12.892L72.178,12.892L72.178,11.576L75.062,11.576L75.062,10.26L67.99199999999999,10.26ZM62.756,8.188L62.756,9.574L64.47800000000001,9.574C64.03,10.918,63.33,12.122,62.392,13.186L63.036,14.824C63.68,13.886,64.212,12.864,64.646,11.744L64.646,17.4L66.032,17.4L66.032,11.52C66.326,11.968,66.676,12.528,67.082,13.2L67.908,11.954C67.27799999999999,11.282,66.648,10.68,66.032,10.12L66.032,9.574L67.55799999999999,9.574L67.55799999999999,8.188L66.032,8.188L66.032,6.396C66.676,6.284,67.306,6.144,67.908,5.976L67.39,4.604C66.032,5.024,64.49199999999999,5.29,62.77,5.43L63.064,6.802C63.596,6.746,64.128,6.69,64.646,6.62L64.646,8.188L62.756,8.188Z" fill="#202020" fill-opacity="1"/></g></g></svg>