<svg xmlns="http://www.w3.org/2000/svg" xmlns:xlink="http://www.w3.org/1999/xlink" fill="none" version="1.1" width="40" height="40" viewBox="0 0 40 40"><g><rect x="0" y="0" width="40" height="40" rx="12" fill="#E9EDFA" fill-opacity="1"/><g transform="matrix(-1,0,0,1,56,0)"><rect x="28" y="12" width="16" height="16" rx="8" fill="#E9EDFA" fill-opacity="1"/><g transform="matrix(0,-1,1,0,2.1669921875,56.6669921875)"><path d="M30.1669921875,40.416L43.1669921875,40.416C43.5811921875,40.416,43.9169921875,40.0982,43.9169921875,39.707C43.9169921875,39.3159,43.5811921875,38.999,43.1669921875,38.999L30.1669921875,38.999C29.7528071875,38.999,29.4169921875,39.3159,29.4169921875,39.707C29.4169921875,40.0982,29.7528071875,40.416,30.1669921875,40.416ZM40.6357921875,32.70898L40.6357921875,32.70898C40.7763921875,32.8418,40.9680921875,32.91699,41.1669921875,32.91699C41.3658921875,32.91699,41.5575921875,32.8418,41.6981921875,32.70898C41.8388921875,32.57609,41.9169921875,32.3959,41.9169921875,32.20801C41.9169921875,32.02012,41.8388921875,31.83993,41.6981921875,31.70703L37.1982421875,27.457031C37.0576121875,27.3242188,36.8658421875,27.25,36.6669921875,27.25L36.6669921875,27.25C36.6428221875,27.25,36.6167621875,27.25174451,36.5927721875,27.25390625C36.4197421875,27.2697296,36.2586021875,27.3409069,36.1357421875,27.457031L36.1357421875,27.457031L31.6357421875,31.70703L31.6357421875,31.70703C31.4951121875,31.83993,31.4169921875,32.02012,31.4169921875,32.20801C31.4169921875,32.3959,31.4951121875,32.57609,31.6357421875,32.70898C31.7763721875,32.8418,31.9681421875,32.91699,32.1669921875,32.91699C32.3658421875,32.91699,32.5576121875,32.8418,32.6982421875,32.70898L32.6982421875,32.70898L35.9169921875,29.66797L35.9209021875,35.875C35.9210821875,36.26617,36.2567121875,36.58301,36.6709021875,36.58301L36.6709021875,36.58301C36.8699321875,36.58292,37.0615221875,36.50888,37.2021521875,36.37598C37.3427721875,36.24316,37.4209021875,36.06281,37.4209021875,35.875L37.4169921875,29.66895L40.6357921875,32.70898Z" fill-rule="evenodd" fill="#2C54D1" fill-opacity="1"/></g></g></g></svg>