<svg xmlns="http://www.w3.org/2000/svg" xmlns:xlink="http://www.w3.org/1999/xlink" fill="none" version="1.1" width="266" height="222.27542114257812" viewBox="0 0 266 222.27542114257812"><defs><filter id="master_svg0_1612_022776" filterUnits="objectBoundingBox" color-interpolation-filters="sRGB" x="-44" y="-33" width="213.77503204345703" height="233.66140747070312"><feFlood flood-opacity="0" result="BackgroundImageFix"/><feColorMatrix in="SourceAlpha" type="matrix" values="0 0 0 0 0 0 0 0 0 0 0 0 0 0 0 0 0 0 127 0"/><feOffset dy="11" dx="0"/><feGaussianBlur stdDeviation="11"/><feColorMatrix type="matrix" values="0 0 0 0 0.3960784375667572 0 0 0 0 0.47843137383461 0 0 0 0 0.5764706134796143 0 0 0 0.27000001072883606 0"/><feBlend mode="normal" in2="BackgroundImageFix" result="effect1_dropShadow"/><feBlend mode="normal" in="SourceGraphic" in2="effect1_dropShadow" result="shape"/></filter><filter id="master_svg1_1612_022792" filterUnits="objectBoundingBox" color-interpolation-filters="sRGB" x="-44" y="-33" width="211.59332275390625" height="232.69775390625"><feFlood flood-opacity="0" result="BackgroundImageFix"/><feColorMatrix in="SourceAlpha" type="matrix" values="0 0 0 0 0 0 0 0 0 0 0 0 0 0 0 0 0 0 127 0"/><feOffset dy="11" dx="0"/><feGaussianBlur stdDeviation="11"/><feColorMatrix type="matrix" values="0 0 0 0 0.3960784375667572 0 0 0 0 0.47843137383461 0 0 0 0 0.5764706134796143 0 0 0 0.27000001072883606 0"/><feBlend mode="normal" in2="BackgroundImageFix" result="effect1_dropShadow"/><feBlend mode="normal" in="SourceGraphic" in2="effect1_dropShadow" result="shape"/></filter><filter id="master_svg2_1612_022758" filterUnits="objectBoundingBox" color-interpolation-filters="sRGB" x="-44" y="-33" width="175.4951934814453" height="211.16230010986328"><feFlood flood-opacity="0" result="BackgroundImageFix"/><feColorMatrix in="SourceAlpha" type="matrix" values="0 0 0 0 0 0 0 0 0 0 0 0 0 0 0 0 0 0 127 0"/><feOffset dy="11" dx="0"/><feGaussianBlur stdDeviation="11"/><feColorMatrix type="matrix" values="0 0 0 0 0.3960784375667572 0 0 0 0 0.47843137383461 0 0 0 0 0.5764706134796143 0 0 0 0.27000001072883606 0"/><feBlend mode="normal" in2="BackgroundImageFix" result="effect1_dropShadow"/><feBlend mode="normal" in="SourceGraphic" in2="effect1_dropShadow" result="shape"/></filter></defs><g><g><path d="M56.436661911010745,41.93755340637207Q56.436661911010745,42.08746340637207,56.429361911010744,42.23718340637207Q56.42196191101074,42.38690340637207,56.40726191101074,42.53609340637207Q56.392561911010745,42.68527340637207,56.37066191101074,42.83355340637207Q56.348661911010744,42.98183340637207,56.31946191101074,43.12885340637207Q56.290261911010745,43.275883406372074,56.253861911010745,43.42129340637207Q56.217461911010744,43.56670340637207,56.17396191101074,43.71015340637207Q56.130561911010744,43.85360340637207,56.080061911010745,43.994743406372066Q56.02966191101074,44.13588340637207,55.97236191101074,44.27437340637207Q55.91506191101074,44.41286340637207,55.85096191101074,44.54837340637207Q55.78696191101074,44.68389340637207,55.71636191101074,44.81609340637207Q55.645761911010744,44.94829340637207,55.56876191101074,45.07687340637207Q55.491861911010744,45.20544340637207,55.40866191101074,45.33008340637207Q55.32546191101074,45.45472340637207,55.23626191101074,45.57513340637207Q55.14706191101074,45.69553340637207,55.05206191101074,45.81141340637207Q54.95706191101074,45.92726340637207,54.85646191101074,46.03836340637207Q54.75586191101074,46.14946340637207,54.65006191101074,46.25546340637207Q54.54416191101074,46.36146340637207,54.43316191101074,46.46206340637207Q54.32226191101074,46.56276340637207,54.20646191101074,46.65786340637207Q54.09070191101074,46.75296340637207,53.970421911010746,46.84226340637207Q53.85015191101074,46.93156340637207,53.72564191101074,47.01486340637207Q53.60113191101074,47.098163406372066,53.47268191101074,47.17516340637207Q53.34424191101074,47.252263406372066,53.212181911010745,47.32296340637207Q53.080111911010746,47.39356340637207,52.944741911010745,47.45766340637207Q52.809381911010746,47.521763406372074,52.67103191101074,47.57916340637207Q52.53268191101074,47.63646340637207,52.39169191101074,47.68696340637207Q52.250701911010744,47.73746340637207,52.10740191101074,47.78096340637207Q51.964101911010744,47.82456340637207,51.81884191101074,47.86096340637207Q51.67358191101074,47.89736340637207,51.52671191101074,47.92666340637207Q51.37984191101074,47.955863406372075,51.231721911010744,47.977863406372066Q51.08359191101074,47.99986340637207,50.93456191101074,48.01456340637207Q50.78554191101074,48.02926340637207,50.63597191101074,48.03656340637207Q50.48641191101074,48.04396340637207,50.336661911010744,48.04396340637207Q50.18691191101074,48.04396340637207,50.037351911010745,48.03656340637207Q49.88778191101074,48.02926340637207,49.73876191101074,48.01456340637207Q49.589731911010745,47.99986340637207,49.44160191101074,47.977863406372066Q49.293481911010744,47.955863406372075,49.146611911010744,47.92666340637207Q48.999741911010744,47.89736340637207,48.854481911010744,47.86096340637207Q48.709221911010744,47.82456340637207,48.56592191101074,47.78096340637207Q48.42263191101074,47.73746340637207,48.28163191101074,47.68696340637207Q48.14064191101074,47.63646340637207,48.002291911010744,47.57916340637207Q47.86394191101074,47.521763406372074,47.72857191101074,47.45766340637207Q47.593201911010745,47.39356340637207,47.46114191101074,47.32296340637207Q47.32908191101074,47.252263406372066,47.200631911010746,47.17516340637207Q47.07219191101074,47.098163406372066,46.94768191101074,47.01486340637207Q46.82317191101074,46.93156340637207,46.702891911010745,46.84226340637207Q46.58262191101074,46.75296340637207,46.46686191101074,46.65786340637207Q46.351101911010744,46.56276340637207,46.24015191101074,46.46206340637207Q46.12920191101074,46.36146340637207,46.023311911010744,46.25546340637207Q45.91742191101074,46.14946340637207,45.81686191101074,46.03836340637207Q45.71629191101074,45.92726340637207,45.62130191101074,45.81141340637207Q45.52630191101074,45.69553340637207,45.43709191101074,45.57513340637207Q45.34789191101074,45.45472340637207,45.26470191101074,45.33008340637207Q45.18150291101074,45.20544340637207,45.10451691101074,45.07687340637207Q45.02753191101074,44.94829340637207,44.956941911010745,44.81609340637207Q44.88635191101074,44.68389340637207,44.82232691101074,44.54837340637207Q44.75830191101074,44.41286340637207,44.70099691101074,44.27437340637207Q44.643690911010744,44.13588340637207,44.59324291101074,43.994743406372066Q44.542794911010745,43.85359340637207,44.49932591101074,43.71015340637207Q44.45585691101074,43.56670340637207,44.41947091101074,43.42129340637207Q44.383085911010745,43.275883406372074,44.35387191101074,43.12885340637207Q44.32465761101074,42.98183340637207,44.30268521101074,42.83355340637207Q44.280712811010744,42.68527340637207,44.266035111010744,42.53609340637207Q44.25135731101074,42.38690340637207,44.24400963101074,42.23718340637207Q44.23666191101074,42.08746340637207,44.23666191101074,41.93755340637207Q44.23666191101074,41.78765340637207,44.24400963101074,41.63793340637207Q44.25135731101074,41.48820340637207,44.266035111010744,41.33902340637207Q44.280712811010744,41.18984340637207,44.30268521101074,41.04156340637207Q44.32465761101074,40.89328340637207,44.35387191101074,40.74626340637207Q44.383085911010745,40.59923340637207,44.41947091101074,40.45382340637207Q44.45585691101074,40.30841340637207,44.49932591101074,40.16496340637207Q44.542794911010745,40.02151340637207,44.59324291101074,39.88037340637207Q44.643690911010744,39.73923340637207,44.70099691101074,39.60074340637207Q44.75830191101074,39.46225340637207,44.82232691101074,39.32673340637207Q44.88635191101074,39.19122340637207,44.956941911010745,39.05902340637207Q45.02753191101074,38.92682340637207,45.10451691101074,38.79824340637207Q45.18150291101074,38.66966340637207,45.26470191101074,38.54502340637207Q45.34789191101074,38.42038340637207,45.43709191101074,38.29998340637207Q45.52630191101074,38.17958340637207,45.62130191101074,38.06370340637207Q45.71629191101074,37.94782340637207,45.81686191101074,37.83675340637207Q45.91742191101074,37.72568340637207,46.023311911010744,37.61968340637207Q46.12920191101074,37.51368340637207,46.24015191101074,37.41301340637207Q46.351101911010744,37.31235340637207,46.46686191101074,37.21725340637207Q46.58262191101074,37.12215340637207,46.702891911010745,37.03285340637207Q46.82317191101074,36.94355340637207,46.94768191101074,36.86027340637207Q47.07219191101074,36.77699440637207,47.200631911010746,36.699928406372074Q47.32908191101074,36.62286240637207,47.46114191101074,36.55219840637207Q47.593201911010745,36.48153440637207,47.72857191101074,36.41744240637207Q47.86394191101074,36.35335040637207,48.002291911010744,36.29598540637207Q48.14064191101074,36.238619406372074,48.28163191101074,36.18811840637207Q48.42263191101074,36.13761740637207,48.56592191101074,36.09410240637207Q48.709221911010744,36.05058840637207,48.854481911010744,36.01416440637207Q48.999741911010744,35.97774040637207,49.146611911010744,35.94849640637207Q49.293481911010744,35.91925130637207,49.44160191101074,35.897255906372074Q49.589731911010745,35.87526050637207,49.73876191101074,35.86056740637207Q49.88778191101074,35.84587420637207,50.037351911010745,35.83851882637207Q50.18691191101074,35.83116340637207,50.336661911010744,35.83116340637207Q50.48641191101074,35.83116340637207,50.63597191101074,35.83851882637207Q50.78554191101074,35.84587420637207,50.93456191101074,35.86056740637207Q51.08359191101074,35.87526050637207,51.231721911010744,35.897255906372074Q51.37984191101074,35.91925130637207,51.52671191101074,35.94849640637207Q51.67358191101074,35.97774040637207,51.81884191101074,36.01416440637207Q51.964101911010744,36.05058840637207,52.10740191101074,36.09410240637207Q52.250701911010744,36.13761740637207,52.39169191101074,36.18811840637207Q52.53268191101074,36.238619406372074,52.67103191101074,36.29598540637207Q52.809381911010746,36.35335040637207,52.94475191101074,36.41744240637207Q53.080111911010746,36.48153440637207,53.212181911010745,36.55219840637207Q53.34424191101074,36.62286240637207,53.47268191101074,36.699928406372074Q53.60113191101074,36.77699440637207,53.72564191101074,36.86027340637207Q53.85015191101074,36.94355340637207,53.970421911010746,37.03285340637207Q54.09070191101074,37.12215340637207,54.20646191101074,37.21725340637207Q54.32226191101074,37.31235340637207,54.43316191101074,37.41301340637207Q54.54416191101074,37.51368340637207,54.65006191101074,37.61968340637207Q54.75586191101074,37.72568340637207,54.85646191101074,37.83675340637207Q54.95706191101074,37.94782340637207,55.05206191101074,38.06370340637207Q55.14706191101074,38.17958340637207,55.23626191101074,38.29998340637207Q55.32546191101074,38.42038340637207,55.40866191101074,38.54502340637207Q55.491861911010744,38.66966340637207,55.56876191101074,38.79824340637207Q55.645761911010744,38.92682340637207,55.71636191101074,39.05902340637207Q55.78696191101074,39.19122340637207,55.85096191101074,39.32673340637207Q55.91506191101074,39.46225340637207,55.97236191101074,39.60074340637207Q56.02966191101074,39.73923340637207,56.080061911010745,39.88037340637207Q56.130561911010744,40.02151340637207,56.17396191101074,40.16496340637207Q56.217461911010744,40.30841340637207,56.253861911010745,40.45382340637207Q56.290261911010745,40.59923340637207,56.31946191101074,40.74626340637207Q56.348661911010744,40.89328340637207,56.37066191101074,41.04156340637207Q56.392561911010745,41.18984340637207,56.40726191101074,41.33902340637207Q56.42196191101074,41.48820340637207,56.429361911010744,41.63793340637207Q56.436661911010745,41.78765340637207,56.436661911010745,41.93755340637207Z" fill="#EAEEF9" fill-opacity="1"/></g><g><path d="M223.3699613769531,60.590417862548826Q223.3699613769531,60.74032786254883,223.36266137695313,60.890047862548826Q223.35526137695314,61.03976786254883,223.34066137695314,61.188957862548826Q223.32596137695313,61.33813786254883,223.3039613769531,61.48641786254883Q223.28196137695312,61.634697862548826,223.25276137695312,61.78171786254883Q223.2235613769531,61.92874786254883,223.18716137695313,62.07415786254883Q223.15086137695312,62.21956786254883,223.10736137695312,62.36301786254883Q223.06386137695313,62.50646786254883,223.01346137695313,62.647607862548824Q222.96306137695314,62.78874786254883,222.90576137695314,62.92723786254883Q222.84846137695314,63.065727862548826,222.78436137695311,63.20123786254883Q222.72036137695312,63.33675786254883,222.64976137695314,63.46895786254883Q222.57926137695313,63.60115786254883,222.50226137695313,63.72973786254883Q222.42526137695313,63.85830786254883,222.34206137695313,63.982947862548826Q222.25896137695312,64.10758786254883,222.16976137695312,64.22799786254883Q222.0805613769531,64.34839786254882,221.98556137695311,64.46427786254883Q221.89056137695312,64.58012786254884,221.78996137695313,64.69122786254883Q221.68946137695312,64.80232786254882,221.58356137695313,64.90832786254883Q221.47776137695314,65.01432786254883,221.36676137695312,65.11492786254883Q221.25586137695313,65.21562786254883,221.1401013769531,65.31072786254883Q221.02436137695312,65.40582786254883,220.90409137695312,65.49512786254883Q220.78383137695312,65.58442786254884,220.65934137695314,65.66772786254883Q220.53485137695313,65.75102786254882,220.40642137695312,65.82802786254882Q220.2780013769531,65.90512786254882,220.14595137695312,65.97582786254883Q220.01391137695313,66.04642786254882,219.8785513769531,66.11052786254882Q219.74320137695312,66.17462786254883,219.60488137695313,66.23202786254883Q219.46655137695313,66.28932786254883,219.32557137695312,66.33982786254883Q219.18460137695314,66.39032786254883,219.04132137695314,66.43382786254882Q218.89804137695313,66.47742786254882,218.75280137695313,66.51382786254882Q218.60756137695313,66.55022786254882,218.46071137695313,66.57952786254883Q218.31386137695313,66.60872786254883,218.16576137695313,66.63072786254882Q218.01765137695313,66.65272786254883,217.86865137695312,66.66742786254883Q217.71964137695312,66.68212786254882,217.57010137695312,66.68942786254883Q217.4205513769531,66.69682786254883,217.2708313769531,66.69682786254883Q217.12110137695313,66.69682786254883,216.97155137695313,66.68942786254883Q216.82201137695313,66.68212786254882,216.67300137695312,66.66742786254883Q216.52400137695312,66.65272786254883,216.37589137695312,66.63072786254882Q216.22779137695312,66.60872786254883,216.08094137695312,66.57952786254883Q215.93409137695312,66.55022786254882,215.78885137695312,66.51382786254882Q215.64361137695312,66.47742786254882,215.5003313769531,66.43382786254882Q215.35705137695314,66.39032786254883,215.21608137695313,66.33982786254883Q215.0751013769531,66.28932786254883,214.93678137695312,66.23202786254883Q214.79845137695312,66.17462786254883,214.66310137695314,66.11052786254882Q214.52775137695312,66.04642786254882,214.39570137695313,65.97582786254883Q214.26365137695313,65.90512786254882,214.13523137695313,65.82802786254882Q214.00680137695312,65.75102786254882,213.8823113769531,65.66772786254883Q213.75782137695313,65.58442786254884,213.63756137695313,65.49512786254883Q213.51730137695313,65.40582786254883,213.4015613769531,65.31072786254883Q213.28582137695312,65.21562786254883,213.17488137695312,65.11492786254883Q213.06394137695312,65.01432786254883,212.9580613769531,64.90832786254883Q212.85219137695313,64.80232786254882,212.75164137695313,64.69122786254883Q212.65109137695313,64.58012786254884,212.5561113769531,64.46427786254883Q212.46112137695312,64.34839786254882,212.3719313769531,64.22799786254883Q212.2827413769531,64.10758786254883,212.19955137695314,63.982947862548826Q212.11637237695314,63.85830786254883,212.03939837695313,63.72973786254883Q211.96242337695313,63.60115786254883,211.89184337695312,63.46895786254883Q211.82126237695311,63.33675786254883,211.75724637695313,63.20123786254883Q211.69323037695312,63.065727862548826,211.63593237695312,62.92723786254883Q211.57863537695312,62.78874786254883,211.5281933769531,62.647607862548824Q211.47775237695313,62.50645786254883,211.43428937695313,62.36301786254883Q211.39082637695313,62.21956786254883,211.35444537695312,62.07415786254883Q211.31806537695311,61.92874786254883,211.28885537695314,61.78171786254883Q211.25964497695313,61.634697862548826,211.23767567695313,61.48641786254883Q211.2157062769531,61.33813786254883,211.20103047695312,61.188957862548826Q211.18635477695312,61.03976786254883,211.17900808695313,60.890047862548826Q211.17166137695312,60.74032786254883,211.17166137695312,60.590417862548826Q211.17166137695312,60.44051786254883,211.17900808695313,60.29079786254883Q211.18635477695312,60.14106786254883,211.20103047695312,59.99188786254883Q211.2157062769531,59.84270786254883,211.23767557695314,59.69442786254883Q211.25964497695313,59.54614786254883,211.28885537695314,59.39912786254883Q211.31806537695311,59.25209786254883,211.35444537695312,59.106687862548824Q211.39082637695313,58.961277862548826,211.43428937695313,58.817827862548825Q211.47775237695313,58.67437786254883,211.5281933769531,58.53323786254883Q211.57863537695312,58.39209786254883,211.63593237695312,58.253607862548826Q211.69323037695312,58.11511786254883,211.75724637695313,57.97959786254883Q211.82126237695311,57.844087862548825,211.89184337695312,57.71188786254883Q211.96242337695313,57.57968786254883,212.03939837695313,57.45110786254883Q212.11637237695314,57.322527862548824,212.19955137695314,57.197887862548825Q212.2827413769531,57.073247862548826,212.3719313769531,56.95284786254883Q212.46112137695312,56.832447862548825,212.5561113769531,56.71656786254883Q212.65109137695313,56.60068786254883,212.75164137695313,56.489617862548826Q212.85219137695313,56.37854786254883,212.9580613769531,56.27254786254883Q213.06394137695312,56.166547862548825,213.17488137695312,56.06587786254883Q213.28582137695312,55.965217862548826,213.4015613769531,55.87011786254883Q213.51730137695313,55.77501786254883,213.63756137695313,55.68571786254883Q213.75782137695313,55.596417862548826,213.8823113769531,55.51313786254883Q214.00680137695312,55.429858862548826,214.13523137695313,55.35279286254883Q214.26365137695313,55.27572686254883,214.39570137695313,55.20506286254883Q214.52775137695312,55.13439886254883,214.66310137695314,55.070306862548826Q214.79845137695312,55.00621486254883,214.93678137695312,54.948849862548826Q215.0751013769531,54.89148386254883,215.21608137695313,54.84098286254883Q215.35705137695314,54.79048186254883,215.5003313769531,54.74696686254883Q215.64361137695312,54.70345286254883,215.78885137695312,54.667028862548825Q215.93409137695312,54.63060486254883,216.08094137695312,54.60136086254883Q216.22779137695312,54.572115762548826,216.37589137695312,54.55012036254883Q216.52400137695312,54.52812496254883,216.67300137695312,54.51343186254883Q216.82201137695313,54.49873866254883,216.97155137695313,54.49138328254883Q217.12110137695313,54.48402786254883,217.2708313769531,54.48402786254883Q217.4205513769531,54.48402786254883,217.57010137695312,54.49138328254883Q217.71964137695312,54.49873866254883,217.86865137695312,54.51343186254883Q218.01765137695313,54.52812496254883,218.16576137695313,54.55012036254883Q218.31386137695313,54.572115762548826,218.46071137695313,54.60136086254883Q218.60756137695313,54.63060486254883,218.75280137695313,54.667028862548825Q218.89804137695313,54.70345286254883,219.04132137695314,54.74696686254883Q219.18460137695314,54.79048186254883,219.32557137695312,54.84098286254883Q219.46655137695313,54.89148386254883,219.60488137695313,54.948849862548826Q219.74320137695312,55.00621486254883,219.8785513769531,55.070306862548826Q220.01391137695313,55.13439886254883,220.14595137695312,55.20506286254883Q220.2780013769531,55.27572686254883,220.40642137695312,55.35279286254883Q220.53485137695313,55.429858862548826,220.65934137695314,55.51313786254883Q220.78383137695312,55.596417862548826,220.90409137695312,55.68571786254883Q221.02436137695312,55.77501786254883,221.1401013769531,55.87011786254883Q221.25586137695313,55.965217862548826,221.36676137695312,56.06587786254883Q221.47776137695314,56.166547862548825,221.58356137695313,56.27254786254883Q221.68946137695312,56.37854786254883,221.78996137695313,56.489617862548826Q221.89056137695312,56.60068786254883,221.98556137695311,56.71656786254883Q222.0805613769531,56.832447862548825,222.16976137695312,56.95284786254883Q222.25896137695312,57.073247862548826,222.34206137695313,57.197887862548825Q222.42526137695313,57.322527862548824,222.50226137695313,57.45110786254883Q222.57926137695313,57.57968786254883,222.64976137695314,57.71188786254883Q222.72036137695312,57.844087862548825,222.78436137695311,57.97959786254883Q222.84846137695314,58.11511786254883,222.90576137695314,58.253607862548826Q222.96306137695314,58.39209786254883,223.01346137695313,58.53323786254883Q223.06386137695313,58.67437786254883,223.10736137695312,58.817827862548825Q223.15086137695312,58.961277862548826,223.18716137695313,59.106687862548824Q223.2235613769531,59.25209786254883,223.25276137695312,59.39912786254883Q223.28196137695312,59.54614786254883,223.3039613769531,59.69442786254883Q223.32596137695313,59.84270786254883,223.34066137695314,59.99188786254883Q223.35526137695314,60.14106786254883,223.36266137695313,60.29079786254883Q223.3699613769531,60.44051786254883,223.3699613769531,60.590417862548826Z" fill="#EAEEF9" fill-opacity="1"/></g><g><path d="M62.696656263427734,27.305573340148925C64.02665626342774,27.305573340148925,65.10499626342774,26.221103340148925,65.10499626342774,24.903053340148926C65.10499626342774,23.568323340148925,64.02665626342774,22.483853340148926,62.696656263427734,22.483853340148926C61.366656263427735,22.483853340148926,60.288326263427734,23.568323340148925,60.288326263427734,24.903053340148926C60.288326263427734,26.221103340148925,61.366656263427735,27.305573340148925,62.696656263427734,27.305573340148925Z" fill="#EAEEF9" fill-opacity="1"/></g><g><path d="M210.20831413085938,40.81972189941406C211.62665413085938,40.81972189941406,212.77665413085938,39.668511899414064,212.77665413085938,38.233681899414066C212.77665413085938,36.81553189941406,211.62665413085938,35.66432189941406,210.20831413085938,35.66432189941406C208.78998413085938,35.66432189941406,207.63998413085938,36.81553189941406,207.63998413085938,38.233681899414066C207.63998413085938,39.668511899414064,208.78998413085938,40.81972189941406,210.20831413085938,40.81972189941406Z" fill="#EAEEF9" fill-opacity="1"/></g><g><path d="M220.8013289337158,96.44460727539062Q220.8013289337158,98.61540727539062,220.6953289337158,100.78350727539062Q220.58932893371582,102.95160727539063,220.37632893371583,105.11190727539062Q220.1643289337158,107.27220727539063,219.84632893371582,109.41970727539062Q219.5283289337158,111.56670727539063,219.1053289337158,113.69570727539063Q218.6823289337158,115.82470727539062,218.15632893371583,117.93070727539063Q217.6293289337158,120.03570727539062,217.00032893371582,122.11370727539062Q216.37132893371583,124.19070727539062,215.6413289337158,126.23470727539062Q214.91132893371582,128.27870727539062,214.0813289337158,130.2837072753906Q213.25232893371583,132.28970727539064,212.3253289337158,134.25170727539063Q211.39932893371582,136.21370727539062,210.37732893371583,138.12870727539064Q209.35632893371582,140.04270727539063,208.2413289337158,141.90470727539062Q207.12732893371583,143.76670727539062,205.92332893371582,145.57170727539062Q204.71932893371581,147.37670727539063,203.42832893371582,149.11970727539062Q202.13732893371582,150.86370727539062,200.76232893371582,152.54170727539062Q199.38732893371582,154.21970727539062,197.9323289337158,155.82770727539062Q196.47732893371582,157.43670727539063,194.9443289337158,158.97070727539062Q193.41232893371583,160.50570727539062,191.80632893371583,161.96370727539062Q190.2003289337158,163.42170727539062,188.52532893371583,164.79870727539063Q186.85032893371582,166.17570727539064,185.10932893371583,167.4687072753906Q183.36832893371582,168.76170727539062,181.56632893371582,169.96770727539064Q179.76432893371583,171.17370727539063,177.90532893371582,172.2897072753906Q176.04732893371582,173.40570727539063,174.1353289337158,174.42970727539063Q172.2243289337158,175.45270727539062,170.2653289337158,176.38070727539062Q168.3063289337158,177.30870727539062,166.30432893371582,178.13970727539063Q164.3013289337158,178.96970727539062,162.26132893371582,179.70170727539062Q160.22032893371582,180.4327072753906,158.14632893371584,181.06270727539064Q156.0733289337158,181.69270727539063,153.97032893371582,182.22070727539062Q151.86832893371582,182.74770727539064,149.74332893371582,183.17170727539062Q147.61732893371584,183.59470727539062,145.47332893371583,183.91370727539064Q143.32982893371582,184.23170727539062,141.17312893371582,184.4447072753906Q139.01632893371584,184.65770727539064,136.85172893371583,184.76370727539063Q134.6872289337158,184.87070727539063,132.52002893371582,184.87070727539063Q130.35282893371584,184.87070727539063,128.18822893371583,184.76370727539063Q126.02362893371583,184.65770727539064,123.86682893371582,184.4447072753906Q121.71012893371582,184.23170727539062,119.56632893371582,183.91370727539064Q117.42262893371581,183.59470727539062,115.29712893371583,183.17170727539062Q113.17152893371582,182.74770727539064,111.06932893371582,182.22070727539062Q108.96702893371582,181.69270727539063,106.89312893371581,181.06270727539064Q104.81932893371582,180.4327072753906,102.77882893371583,179.70170727539062Q100.73832893371582,178.97070727539062,98.73602893371583,178.13970727539063Q96.73382893371581,177.30870727539062,94.77472893371582,176.38070727539062Q92.81562893371583,175.45270727539062,90.90432893371582,174.42970727539063Q88.99302893371582,173.40570727539063,87.13412893371583,172.2897072753906Q85.27532893371583,171.17370727539063,83.47332893371582,169.96770727539064Q81.67132893371581,168.76170727539062,79.93062893371582,167.4687072753906Q78.18992893371582,166.17570727539064,76.51472893371582,164.79870727539063Q74.83942893371582,163.42170727539062,73.23362893371582,161.96370727539062Q71.62782893371582,160.50570727539062,70.09542893371582,158.97070727539062Q68.56302893371583,157.43670727539063,67.10762893371582,155.82770727539062Q65.65222893371582,154.21970727539062,64.27732893371582,152.54170727539062Q62.90252893371582,150.86370727539062,61.61152893371582,149.11970727539062Q60.32052893371582,147.37670727539063,59.116428933715824,145.57170727539062Q57.912428933715816,143.76670727539062,56.79832893371582,141.90470727539062Q55.68412893371582,140.04270727539063,54.66252893371582,138.12870727539064Q53.64090893371582,136.21370727539062,52.71430893371582,134.25170727539063Q51.78771893371582,132.28970727539064,50.95836893371582,130.2837072753906Q50.12901893371582,128.27870727539062,49.39891893371582,126.23470727539062Q48.66880893371582,124.19070727539062,48.03970893371582,122.11370727539062Q47.41060893371582,120.03570727539062,46.88401893371582,117.93070727539063Q46.35743893371582,115.82470727539062,45.93463893371582,113.69570727539063Q45.51183893371582,111.56670727539063,45.19384493371582,109.41970727539062Q44.87585093371582,107.27220727539063,44.66342893371582,105.11190727539062Q44.45100693371582,102.95160727539063,44.34466793371582,100.78350727539062Q44.23832893371582,98.61540727539062,44.23832893371582,96.44460727539062Q44.23832893371582,94.27390727539063,44.34466793371582,92.10580727539063Q44.45100693371582,89.93760727539062,44.66342893371582,87.77740727539063Q44.87585093371582,85.61710727539062,45.19384493371582,83.46980727539062Q45.51183893371582,81.32260727539062,45.93463893371582,79.19360727539062Q46.35743893371582,77.06460727539063,46.88401893371582,74.95890727539063Q47.41060893371582,72.85320727539063,48.03970893371582,70.77590727539062Q48.66880893371582,68.69870727539063,49.39891893371582,66.65480727539062Q50.12901893371582,64.61100727539062,50.95836893371582,62.60550727539062Q51.78771893371582,60.600007275390624,52.71430893371582,58.637707275390625Q53.64090893371582,56.67530727539062,54.66252893371582,54.76090727539062Q55.68412893371582,52.84650727539063,56.79832893371582,50.98460727539062Q57.912428933715816,49.122707275390624,59.116428933715824,47.31780727539063Q60.32052893371582,45.512907275390624,61.61152893371582,43.76940727539063Q62.90252893371582,42.025807275390626,64.27732893371582,40.34780727539062Q65.65222893371582,38.669807275390625,67.10762893371582,37.06140727539062Q68.56302893371583,35.453007275390625,70.09542893371582,33.918107275390625Q71.62782893371582,32.38310727539063,73.23362893371582,30.925307275390626Q74.83942893371582,29.467607275390623,76.51472893371582,28.090507275390625Q78.18992893371582,26.713407275390626,79.93062893371582,25.420307275390623Q81.67132893371581,24.127107275390625,83.47332893371582,22.921207275390625Q85.27522893371582,21.715207275390625,87.13412893371583,20.599207275390626Q88.99302893371582,19.483207275390626,90.90432893371582,18.459907275390627Q92.81562893371583,17.436647275390627,94.77472893371582,16.508537275390623Q96.73382893371581,15.580437275390626,98.73602893371583,14.749727275390626Q100.73832893371582,13.919027275390626,102.77882893371583,13.187727275390625Q104.81932893371582,12.456427275390624,106.89312893371581,11.826297275390624Q108.96702893371582,11.196167275390625,111.06932893371582,10.668717275390625Q113.17152893371582,10.141277275390625,115.29712893371583,9.717787275390625Q117.42262893371581,9.294297275390624,119.56632893371582,8.975784275390625Q121.71012893371582,8.657271275390626,123.86682893371582,8.444502275390626Q126.02362893371583,8.231733275390624,128.18822893371583,8.125220275390625Q130.35282893371584,8.018707275390625,132.52002893371582,8.018707275390625Q134.6872289337158,8.018707275390625,136.85172893371583,8.125220275390625Q139.01632893371584,8.231733275390624,141.17312893371582,8.444502275390626Q143.32982893371582,8.657271275390626,145.47332893371583,8.975784275390625Q147.61732893371584,9.294297275390624,149.74332893371582,9.717787275390625Q151.86832893371582,10.141277275390625,153.97032893371582,10.668717275390625Q156.0733289337158,11.196167275390625,158.14632893371584,11.826297275390624Q160.22032893371582,12.456427275390624,162.26132893371582,13.187727275390625Q164.3013289337158,13.919027275390626,166.30432893371582,14.749727275390626Q168.3063289337158,15.580437275390626,170.2653289337158,16.508547275390626Q172.2243289337158,17.436647275390627,174.1353289337158,18.459907275390627Q176.04732893371582,19.483207275390626,177.90532893371582,20.599207275390626Q179.76432893371583,21.715207275390625,181.56632893371582,22.921207275390625Q183.36832893371582,24.127107275390625,185.10932893371583,25.420307275390623Q186.85032893371582,26.713407275390626,188.52532893371583,28.090507275390625Q190.2003289337158,29.467607275390623,191.80632893371583,30.925307275390626Q193.41232893371583,32.38310727539063,194.9443289337158,33.918107275390625Q196.47732893371582,35.453007275390625,197.9323289337158,37.06140727539062Q199.38732893371582,38.669807275390625,200.76232893371582,40.34780727539062Q202.13732893371582,42.025807275390626,203.42832893371582,43.76940727539063Q204.71932893371581,45.512907275390624,205.92332893371582,47.31780727539063Q207.12732893371583,49.122707275390624,208.2413289337158,50.98460727539062Q209.35632893371582,52.84650727539063,210.37732893371583,54.76090727539062Q211.39932893371582,56.67530727539062,212.3253289337158,58.637707275390625Q213.25232893371583,60.600007275390624,214.0813289337158,62.60550727539062Q214.91132893371582,64.61100727539062,215.6413289337158,66.65480727539062Q216.37132893371583,68.69870727539063,217.00032893371582,70.77590727539062Q217.6293289337158,72.85320727539063,218.15632893371583,74.95890727539063Q218.6823289337158,77.06450727539062,219.1053289337158,79.19360727539062Q219.5283289337158,81.32260727539062,219.84632893371582,83.46980727539062Q220.1643289337158,85.61710727539062,220.37632893371583,87.77740727539063Q220.58932893371582,89.93770727539062,220.6953289337158,92.10580727539063Q220.8013289337158,94.27390727539063,220.8013289337158,96.44460727539062Z" fill="#EAEEF9" fill-opacity="1"/></g><g filter="url(#master_svg0_1612_022776)"><path d="M157.238,147.0810022277832L80.5133,178.1130022277832C79.22999999999999,178.5970022277832,77.785,177.9470022277832,77.30330000000001,176.8290022277832L33.161662,67.0138022277832C32.679996,65.7291022277832,33.323329,64.2943022277832,34.44666,63.8105022277832L111.1717,32.7779662277832C112.455,32.2941262277832,113.9,32.9281232277832,114.3817,34.0626422277832L158.523,143.71100222778318C159.16500000000002,145.1620022277832,158.523,146.5970022277832,157.238,147.0810022277832Z" fill="#FFFFFF" fill-opacity="1"/></g><g><path d="M123.3699882965088,82.12965012207032L59.16499829650879,108.02345012207032C58.52332829650879,108.34045012207031,57.88166029650879,108.02345012207032,57.559993296508786,107.37275012207031C57.23999429650879,106.73875012207031,57.559993296508786,106.08805012207031,58.20166029650879,105.7710501220703L122.2466882965088,79.87729112207032C122.88828829650879,79.56029212207031,123.53168829650879,79.87729112207032,123.85168829650878,80.52797212207031C124.17328829650879,81.16197012207031,123.85168829650878,81.81265012207031,123.3699882965088,82.12965012207032Z" fill="#E6EDF5" fill-opacity="1"/></g><g><path d="M125.778303805542,88.40288162841797L61.73332380554199,114.27998162841797C61.09166380554199,114.61368162841796,60.44999380554199,114.27998162841797,60.128326805541995,113.64598162841797C59.806660805541995,112.99528162841797,60.128326805541995,112.36128162841797,60.76999380554199,112.04428162841796L124.81500380554199,86.15052262841797C125.45670380554199,85.83352362841796,126.10000380554199,86.15052262841797,126.420003805542,86.80120362841797C126.741603805542,87.43520162841797,126.420003805542,88.08588162841797,125.778303805542,88.40288162841797Z" fill="#E6EDF5" fill-opacity="1"/></g><g><path d="M128.34663838500978,94.50927270019531L64.30165838500976,120.55319270019531C63.659998385009764,120.88689270019532,63.01832838500977,120.55319270019531,62.69666138500977,119.91919270019531C62.37499538500977,119.26849270019531,62.69666138500977,118.63449270019531,63.33832838500977,118.3008927001953L127.38333838500976,92.42375270019531C128.02503838500976,92.10675370019531,128.66833838500975,92.42375270019531,128.98833838500977,93.05774970019532C129.3099383850098,93.54159270019531,128.98833838500977,94.35911270019531,128.34663838500978,94.50927270019531Z" fill="#E6EDF5" fill-opacity="1"/></g><g><path d="M90.94667105712891,117.01617813720704L66.8699910571289,126.82647813720703C66.22833105712891,127.14347813720703,65.58666105712891,126.82647813720703,65.2649940571289,126.19247813720703C64.94332805712891,125.54177813720703,65.2649940571289,124.89107813720703,65.9066610571289,124.57408813720703L89.9833710571289,114.76381913720704C90.6266710571289,114.44682013720703,91.2683710571289,114.76381913720704,91.58837105712891,115.41450013720703C91.7499710571289,116.04849813720703,91.58837105712891,116.69917813720703,90.94667105712891,117.01617813720704Z" fill="#E6EDF5" fill-opacity="1"/></g><g><path d="M136.69334310913086,110.42593586914063L138.77994310913084,115.73149586914063C139.10164310913086,116.69917586914062,138.77994310913084,117.81701586914062,137.81664310913087,118.15069586914062L74.41332310913086,143.87761586914064C73.45166310913086,144.19461586914062,72.32666310913086,143.87761586914064,72.00666310913086,142.90991586914063L69.91999410913085,137.4375158691406C69.59832710913086,136.46991586914064,69.91999410913085,135.35201586914062,70.88332310913086,135.03501586914064L134.28494310913086,109.45825906914062C135.24834310913087,109.14126086914062,136.21164310913088,109.62510086914062,136.69334310913086,110.42593586914063Z" fill="#E3EAF2" fill-opacity="1"/></g><g><path d="M141.6683455505371,122.65540942871094L143.75494555053712,127.96095942871094C144.0766455505371,128.91195942871093,143.75494555053712,130.04647942871094,142.7933455505371,130.36347942871095L79.38999555053711,156.09043942871094C78.42666555053711,156.40743942871094,77.30332555053711,156.09043942871094,76.98166555053712,155.12273942871093L74.7349965505371,149.65033942871094C74.41332955053711,148.69933942871094,74.7349965505371,147.56483942871094,75.6983255505371,147.24783942871093L139.1016455505371,121.68772442871094C140.06334555053712,121.35404242871094,141.18834555053712,121.83788242871094,141.6683455505371,122.65540942871094Z" fill="#E3EAF2" fill-opacity="1"/></g><g><path d="M146.48498434448243,134.86819591357423L148.57168434448243,140.17374891357423C148.89168434448243,141.14142891357423,148.57168434448243,142.25926891357423,147.60828434448243,142.5762689135742L84.20499434448243,168.30319891357422C83.24166434448242,168.6368989135742,82.11832434448242,168.30319891357422,81.79832434448242,167.3354989135742L79.71166134448242,162.02999891357422C79.38999434448242,161.07899891357422,79.71166134448242,159.94449891357422,80.67332434448242,159.62749891357421L144.07668434448243,134.06735691357423C145.03998434448243,133.58351691357421,146.1632843444824,134.06735691357423,146.48498434448243,134.86819591357423Z" fill="#E3EAF2" fill-opacity="1"/></g><g><path d="M77.46332310913085,132.44900512695312L80.99504310913086,141.29159512695313L74.41332310913086,143.8776051269531C73.45166310913086,144.19460512695312,72.32666310913086,143.8776051269531,72.00666310913086,142.91000512695314L69.91999410913085,137.43756512695313C69.59832710913086,136.46988512695313,69.91999410913085,135.35204512695313,70.88332310913086,135.03504512695312L77.46332310913085,132.44900512695312Z" fill="#989FB0" fill-opacity="1"/></g><g><path d="M75.85832531860352,147.24781954589844L95.11999531860351,139.37290954589844L98.65169531860352,148.21549954589844L79.38999531860351,156.09040954589844C78.42665531860352,156.40740954589845,77.30332531860351,156.09040954589844,76.98165531860352,155.12270954589843L74.73499221860351,149.65030954589844C74.41499231860351,148.84949954589842,74.89499231860351,147.73165954589842,75.85832531860352,147.24781954589844Z" fill="#B4BACA" fill-opacity="1"/></g><g><path d="M80.67332434448242,159.4606134375L83.40332434448243,158.3427734375L86.93332434448243,167.1853634375L84.20499434448243,168.3032034375C83.24166434448242,168.63687343750001,82.11832434448242,168.3032034375,81.79832434448242,167.3355234375L79.71166134448242,162.0299634375C79.38999434448242,161.0789734375,79.71166134448242,159.9444534375,80.67332434448242,159.4606134375Z" fill="#B4BACA" fill-opacity="1"/></g><g><path d="M65.26496259765625,60.590423583984375C74.25336259765625,60.590423583984375,81.47666259765626,67.83134358398438,81.63666259765625,76.67392358398438C81.63666259765625,76.82412358398437,81.63666259765625,76.82412358398437,81.79836259765625,76.82412358398437C81.79836259765625,81.01182358398438,80.35336259765626,84.69902358398437,77.78496259765625,87.60202358398438C74.73496259765625,90.97222358398437,70.40166259765626,93.22462358398437,65.42496259765625,93.22462358398437C56.43666259765625,93.22462358398437,49.05332959765625,85.98372358398437,48.89166259765625,76.99092358398437C48.89166259765625,67.98149358398437,56.11499259765625,60.590423583984375,65.10496259765625,60.590423583984375L65.26496259765625,60.590423583984375ZM54.35016259765625,76.99092358398437C54.35016259765625,83.09732358398438,59.32516259765625,88.08582358398438,65.42516259765625,88.08582358398438C68.79686259765626,88.08582358398438,71.68516259765624,86.63432358398438,73.93186259765625,84.21512358398438C75.69846259765625,82.29642358398438,76.66186259765625,79.72712358398438,76.66186259765625,76.99092358398437L76.66186259765625,76.67392358398438C76.50016259765624,70.71772358398438,71.68516259765624,65.89596358398437,65.58516259765625,65.89596358398437L65.42516259765625,65.89596358398437C59.32516259765625,65.89596358398437,54.35016259765625,70.88452358398438,54.35016259765625,76.99092358398437Z" fill-rule="evenodd" fill="#E6EDF5" fill-opacity="1"/></g><g><path d="M81.63669557495118,76.67392358398438L76.33999557495117,76.67392358398438C76.33999557495117,70.71772358398438,71.36499557495117,65.89598358398437,65.42499557495117,65.89598358398437L65.26499557495117,65.89598358398437L65.26499557495117,60.590423583984375L65.42499557495117,60.590423583984375C74.25332557495118,60.590423583984375,81.47669557495118,67.83134358398438,81.63669557495118,76.67392358398438Z" fill="#989FB0" fill-opacity="1"/></g><g filter="url(#master_svg1_1612_022792)"><path d="M188.53827724609374,172.00732029724122L111.01166724609375,143.06032029724122C109.72666324609375,142.5763202972412,109.08499724609375,141.1413202972412,109.56666324609375,139.8563202972412L150.65837724609375,29.07409029724121C151.13997724609374,27.78940829724121,152.58337724609373,27.155411297241212,153.86837724609376,27.62256729724121L231.39667724609376,56.40272029724121C232.67967724609375,56.88652029724121,233.32167724609377,58.338020297241215,232.83967724609374,59.62272029724121L191.74997724609375,170.55532029724122C191.26827724609376,171.84032029724122,189.82327724609377,172.4913202972412,188.53827724609374,172.00732029724122Z" fill="#FFFFFF" fill-opacity="1"/></g><g style="opacity:0.4000000059604645;"><path d="M178.2666680908203,77.47476318359375L172.0066680908203,75.05556318359375L177.14333809082032,60.75726318359375L183.40336809082032,62.99293318359375L178.2666680908203,77.47476318359375Z" fill="#E6EDF5" fill-opacity="1"/></g><g><path d="M186.77331726074217,80.52794821777344L180.3533172607422,78.10874821777344L188.2183172607422,56.25254821777344L194.4783172607422,58.65506821777344L186.77331726074217,80.52794821777344Z" fill="#B4BACA" fill-opacity="1"/></g><g><path d="M203.6266534423828,86.46750974731445L197.3666534423828,84.21510974731446L207.63995344238282,55.45170974731445L214.0599534423828,57.68737974731445L203.6266534423828,86.46750974731445Z" fill="#B4BACA" fill-opacity="1"/></g><g style="opacity:0.4000000059604645;"><path d="M211.653310546875,89.3705861328125L205.393310546875,87.1181961328125L208.121640546875,79.2432861328125L214.541640546875,81.6458061328125L211.653310546875,89.3705861328125Z" fill="#E6EDF5" fill-opacity="1"/></g><g><path d="M207.1582971435547,101.09948159179687L142.31166514355468,76.99093159179688C141.6699991435547,76.82409159179687,141.3483321435547,76.02325159179688,141.5083322435547,75.37256759179688C141.6699991435547,74.73857059179687,142.4716671435547,74.42157159179688,143.1133271435547,74.57172899179687L207.9616971435547,98.69698159179687C208.6032971435547,98.84718159179687,208.9249971435547,99.66468159179688,208.76329714355467,100.29868159179688C208.44329714355467,100.94938159179688,207.7999971435547,101.26638159179687,207.1582971435547,101.09948159179687Z" fill="#E6EDF5" fill-opacity="1"/></g><g><path d="M204.751602734375,107.37278424072265L139.903323734375,83.26417424072265C139.261656734375,83.09733424072266,138.939990734375,82.29649424072265,139.101657134375,81.64581024072265C139.261656734375,81.01181224072266,140.063322734375,80.67813024072265,140.706652734375,80.84497114072266L205.553302734375,104.97018424072266C206.195002734375,105.12038424072266,206.516602734375,105.92118424072265,206.356602734375,106.57188424072265C206.195002734375,107.20588424072265,205.393302734375,107.68978424072266,204.751602734375,107.37278424072265Z" fill="#E6EDF5" fill-opacity="1"/></g><g><path d="M202.5032907348633,113.64600811767578L137.65665873486327,89.52070811767578C137.01499273486328,89.37055811767578,136.6933257348633,88.56971811767578,136.85332583486328,87.91903411767578C137.01499273486328,87.28503611767579,137.8166607348633,86.95135411767578,138.4583207348633,87.11819501767579L203.30669073486328,111.22680811767577C203.9482907348633,111.39360811767578,204.26999073486328,112.19440811767578,204.10829073486326,112.84510811767578C203.78829073486327,113.64600811767578,203.14499073486328,113.96300811767578,202.5032907348633,113.64600811767578Z" fill="#E6EDF5" fill-opacity="1"/></g><g><path d="M159.80670270996094,104.97022177734375L135.40999270996093,95.96079177734374C134.76665970996095,95.79395177734375,134.44665970996093,94.99311177734376,134.60665930996095,94.35911677734374C134.76665970996095,93.70843577734375,135.56999270996093,93.39143677734376,136.21166270996093,93.54159447734375L160.61000270996095,102.55103177734375C161.25170270996094,102.71787177734375,161.57330270996093,103.51872177734376,161.41170270996093,104.15272177734374C161.09170270996094,104.80342177734374,160.45000270996093,105.12042177734375,159.80670270996094,104.97022177734375Z" fill="#DDDDDD" fill-opacity="1"/></g><g><path d="M198.01000682373046,131.01412543945312L196.08330682373048,136.46992543945314C195.76170682373046,137.4375254394531,194.6383068237305,137.92142543945312,193.67500682373048,137.6044254394531L179.87160682373047,132.44902543945312L129.46998682373047,113.64598543945313C128.50665682373048,113.32898543945312,128.02499082373046,112.19446543945313,128.34665722373046,111.22678543945312L130.27332682373046,105.77106543945312C130.59332682373048,104.80339043945312,131.71832682373048,104.31955043945312,132.67998682373047,104.63654883945313L182.76000682373046,123.28942543945313L196.72500682373047,128.42812543945314C197.84830682373047,129.0788254394531,198.33000682373046,130.04652543945312,198.01000682373046,131.01412543945312Z" fill="#E6EDF5" fill-opacity="1"/></g><g><path d="M193.3549509399414,143.3938511230469L191.42835093994142,148.84955112304687C191.1066509399414,149.81715112304687,189.9833509399414,150.30105112304688,189.0199509399414,149.98405112304687L184.36495093994142,148.21555112304688L124.97666093994141,126.19246112304688C124.0133279399414,125.85877112304688,123.5316609399414,124.74094112304688,123.8516608399414,123.77326112304688L125.77833093994141,118.30086112304687C126.0999909399414,117.34986312304687,127.2233309399414,116.86602312304687,128.18666093994142,117.18302162304687L187.7366509399414,139.37295112304687L192.2316509399414,141.14145112304686C193.1933509399414,141.45845112304687,193.67495093994143,142.42615112304688,193.3549509399414,143.3938511230469Z" fill="#E6EDF5" fill-opacity="1"/></g><g><path d="M188.85997216796875,155.7734669067383L186.93327216796877,161.22916690673827C186.61327216796874,162.19676690673828,185.48997216796874,162.68066690673828,184.52667216796874,162.36366690673827L160.76997216796875,153.52106690673827L120.48165216796875,138.5720769067383C119.51832216796875,138.23838690673827,119.03665616796874,137.12055690673827,119.35832256796876,136.15287690673827L121.28332216796875,130.68047690673828C121.60499216796875,129.72947890673828,122.72832216796876,129.2456389067383,123.69165216796875,129.56263740673828L164.94327216796876,144.82866690673828L187.73667216796875,153.35426690673827C188.69997216796875,153.67126690673828,189.18167216796877,154.80576690673828,188.85997216796875,155.7734669067383Z" fill="#E6EDF5" fill-opacity="1"/></g><g><path d="M123.69165216796875,129.56263681572267L164.94327216796876,144.82859361572267L160.76997216796875,153.35419361572266L120.48165216796875,138.40523361572266C119.51832216796875,138.08823361572266,119.03665616796874,136.95371361572265,119.35832256796876,135.98603361572265L121.28332216796875,130.53031361572266C121.60499216796875,129.72947861572266,122.72832216796876,129.24563861572267,123.69165216796875,129.56263681572267Z" fill="#B4B9C9" fill-opacity="1"/></g><g><path d="M128.34665722373046,111.39362008056641L130.27332682373046,105.9212300805664C130.59332682373048,104.9702320805664,131.71832682373048,104.4863920805664,132.67998682373047,104.8033905805664L182.76000682373046,123.45622008056641L179.55000682373048,132.2988200805664L129.46998682373047,113.6459800805664C128.50665682373048,113.32898008056641,128.02499082373046,112.36130008056641,128.34665722373046,111.39362008056641Z" fill="#B4B9C9" fill-opacity="1"/></g><g><path d="M187.7366509399414,139.37295112304687L184.36495093994142,148.21555112304688L124.97666093994141,126.19245112304688C124.0133279399414,125.85877112304688,123.5316609399414,124.74093112304688,123.85166073994141,123.77325112304688L125.77833093994141,118.30086112304687C126.0999909399414,117.34986312304687,127.2233309399414,116.86602312304687,128.18666093994142,117.18302162304687L187.7366509399414,139.37295112304687Z" fill="#B4B9C9" fill-opacity="1"/></g><g><path d="M144.71830682373047,109.30810543945313L141.50830682373046,118.15072543945313L129.46998682373047,113.64598543945313C128.50665682373048,113.32898543945312,128.02499082373046,112.19446543945313,128.34665722373046,111.22678543945312L130.27332682373046,105.77106543945312C130.59332682373048,104.80339043945312,131.71832682373048,104.31955043945312,132.67998682373047,104.63654883945313L144.71830682373047,109.30810543945313Z" fill="#DDDDDD" fill-opacity="1"/></g><g><path d="M128.18666093994142,117.18301340263672L140.2249509399414,121.68773020263671L137.0149509399414,130.53037020263673L124.97666093994141,126.02561020263671C124.0133279399414,125.70861020263672,123.5316609399414,124.57409020263673,123.8516608399414,123.60641020263672L125.77833093994141,118.15069020263672C126.2599909399414,117.34985520263672,127.2233309399414,116.86601520263672,128.18666093994142,117.18301340263672Z" fill="#DDDDDD" fill-opacity="1"/></g><g><path d="M123.69165216796875,129.56263681572267L135.72997216796875,134.06735361572265L132.51997216796875,142.90999361572267L120.48165216796875,138.40523361572266C119.51832216796875,138.08823361572266,119.03665616796874,136.95371361572265,119.35832256796876,135.98603361572265L121.28332216796875,130.53031361572266C121.60499216796875,129.72947861572266,122.72832216796876,129.24563861572267,123.69165216796875,129.56263681572267Z" fill="#DDDDDD" fill-opacity="1"/></g><g filter="url(#master_svg2_1612_022758)"><path d="M174.73502626342776,145.16201430511475L92.06999626342774,145.16201430511475C90.78665626342773,145.16201430511475,89.66332626342773,144.02801430511477,89.66332626342773,142.74301430511474L89.66332626342773,24.419214305114746C89.66332626342773,23.134534305114745,90.78665626342773,22.000014305114746,92.06999626342774,22.000014305114746L174.73502626342776,22.000014305114746C176.01832626342775,22.000014305114746,177.14332626342775,23.134534305114745,177.14332626342775,24.419214305114746L177.14332626342775,142.57601430511474C177.30332626342772,144.02801430511477,176.18002626342775,145.16201430511475,174.73502626342776,145.16201430511475Z" fill="#FFFFFF" fill-opacity="1"/></g><g><path d="M167.51165740966798,67.49765895019532L98.49165740966797,67.49765895019532C97.84832440966797,67.49765895019532,97.20665740966797,67.01381895019531,97.20665740966797,66.2129789501953C97.20665740966797,65.57897995019532,97.68832440966797,64.92829895019531,98.49165740966797,64.92829895019531L167.51165740966798,64.92829895019531C168.153357409668,64.92829895019531,168.79665740966797,65.41213895019531,168.79665740966797,66.2129789501953C168.79665740966797,66.86365895019532,168.153357409668,67.49765895019532,167.51165740966798,67.49765895019532Z" fill="#E6EDF5" fill-opacity="1"/></g><g><path d="M167.51165740966798,74.08789179931641L98.49165740966797,74.08789179931641C97.84832440966797,74.08789179931641,97.20665740966797,73.60405179931641,97.20665740966797,72.8032117993164C97.20665740966797,72.16921279931641,97.68832440966797,71.5185317993164,98.49165740966797,71.5185317993164L167.51165740966798,71.5185317993164C168.153357409668,71.5185317993164,168.79665740966797,72.0023717993164,168.79665740966797,72.8032117993164C168.79665740966797,73.60405179931641,168.153357409668,74.08789179931641,167.51165740966798,74.08789179931641Z" fill="#E6EDF5" fill-opacity="1"/></g><g><path d="M167.51165740966798,80.84497187744141L98.49165740966797,80.84497187744141C97.84832440966797,80.84497187744141,97.20665740966797,80.36113187744141,97.20665740966797,79.5602918774414C97.20665740966797,78.9096088774414,97.68832440966797,78.2756118774414,98.49165740966797,78.2756118774414L167.51165740966798,78.2756118774414C168.153357409668,78.2756118774414,168.79665740966797,78.7594518774414,168.79665740966797,79.5602918774414C168.79665740966797,80.36113187744141,168.153357409668,80.84497187744141,167.51165740966798,80.84497187744141Z" fill="#E6EDF5" fill-opacity="1"/></g><g><path d="M167.35162733154297,106.08807490478516L144.07665733154298,106.08807490478516C143.43499433154298,106.08807490478516,142.79332733154297,105.60423490478516,142.79332733154297,104.80339490478515C142.79332733154297,104.15271190478515,143.27332733154296,103.51871490478516,144.07665733154298,103.51871490478516L167.35162733154297,103.51871490478516C167.99332733154296,103.51871490478516,168.63502733154297,104.00255490478516,168.63502733154297,104.80339490478515C168.47502733154298,105.43739490478515,167.99332733154296,106.08807490478516,167.35162733154297,106.08807490478516Z" fill="#E6EDF5" fill-opacity="1"/></g><g><path d="M113.41836137695313,96.92847442626953C122.40666137695312,96.92847442626953,129.62996137695313,104.15270442626954,129.79166137695313,112.99527442626953L129.79166137695313,113.32897442626953C129.79166137695313,117.49997442626953,128.34666137695314,121.20387442626954,125.77836137695313,124.09027442626953C122.72836137695313,127.47717442626953,118.39496137695312,129.72947442626952,113.41836137695313,129.72947442626952C104.42999137695313,129.72947442626952,97.04666137695312,122.32177442626953,97.04666137695312,113.32897442626953C97.04666137695312,104.31954442626953,104.26999137695313,96.92847442626953,113.25836137695313,96.92847442626953L113.41836137695313,96.92847442626953ZM102.34354137695313,113.16217442626953C102.34354137695313,119.26857442626954,107.31856137695313,124.25707442626953,113.41856137695312,124.25707442626953C116.79016137695312,124.25707442626953,119.67856137695313,122.80557442626953,121.92686137695313,120.40307442626953C123.69186137695313,118.46767442626953,124.65516137695312,115.89837442626953,124.65516137695312,113.16217442626953L124.65516137695312,112.84517442626954C124.49356137695312,106.88892442626953,119.67856137695313,102.06720442626953,113.58016137695313,102.06720442626953L113.41856137695312,102.06720442626953C107.31856137695313,102.06720442626953,102.34354137695313,107.05577442626954,102.34354137695313,113.16217442626953Z" fill-rule="evenodd" fill="#E6EDF5" fill-opacity="1"/></g><g><path d="M129.7916236694336,112.99527442626953L124.49502366943359,112.99527442626953C124.3333236694336,107.05577442626954,119.5183236694336,102.23403442626953,113.41832366943359,102.23403442626953L113.2583236694336,102.23403442626953L113.2583236694336,96.92847442626953L113.41832366943359,96.92847442626953C122.4083236694336,96.92847442626953,129.6300236694336,104.00254442626954,129.7916236694336,112.99527442626953Z" fill="#989FB0" fill-opacity="1"/></g><g><path d="M129.7916617602539,113.16213366357422C129.7916617602539,117.34985266357423,128.3466617602539,121.03704266357423,125.7783217602539,123.94009266357422L121.7649917602539,120.55320266357421C123.53166176025391,118.63453266357422,124.49499176025391,116.04849266357422,124.49499176025391,113.32897566357421C124.49499176025391,113.16213366357422,124.49499176025391,113.16213366357422,124.49499176025391,112.99529266357422L129.7916617602539,112.99529266357422L129.7916617602539,113.16213366357422Z" fill="#B4BACA" fill-opacity="1"/></g><g><path d="M138.45832122802733,106.57190633300782C139.43332122802735,106.57190633300782,140.22499122802733,105.77106633300781,140.22499122802733,104.80338633300781C140.22499122802733,103.81902033300781,139.43332122802735,103.03486633300781,138.45832122802733,103.03486633300781C137.48332122802734,103.03486633300781,136.69332122802734,103.81902033300781,136.69332122802734,104.80338633300781C136.69332122802734,105.77106633300781,137.48332122802734,106.57190633300782,138.45832122802733,106.57190633300782Z" fill="#E6EDF5" fill-opacity="1"/></g><g><path d="M167.35162733154297,113.47913478027344L144.07665733154298,113.47913478027344C143.43499433154298,113.47913478027344,142.79332733154297,112.99529478027344,142.79332733154297,112.19445478027343C142.79332733154297,111.56045578027344,143.27332733154296,110.90977478027344,144.07665733154298,110.90977478027344L167.35162733154297,110.90977478027344C167.99332733154296,110.90977478027344,168.63502733154297,111.39361478027344,168.63502733154297,112.19445478027343C168.47502733154298,112.84513478027344,167.99332733154296,113.47913478027344,167.35162733154297,113.47913478027344Z" fill="#E6EDF5" fill-opacity="1"/></g><g><path d="M138.45832122802733,113.96298146728516C139.43332122802735,113.96298146728516,140.22499122802733,113.17882146728516,140.22499122802733,112.19446146728515C140.22499122802733,111.22678046728515,139.43332122802735,110.42594146728516,138.45832122802733,110.42594146728516C137.48332122802734,110.42594146728516,136.69332122802734,111.22678046728515,136.69332122802734,112.19446146728515C136.69332122802734,113.17882146728516,137.48332122802734,113.96298146728516,138.45832122802733,113.96298146728516Z" fill="#B4BACA" fill-opacity="1"/></g><g><path d="M167.35162733154297,120.87020991455078L144.07665733154298,120.87020991455078C143.43499433154298,120.87020991455078,142.79332733154297,120.40304991455078,142.79332733154297,119.58552991455078C142.79332733154297,118.95153091455079,143.27332733154296,118.30084991455078,144.07665733154298,118.30084991455078L167.35162733154297,118.30084991455078C167.99332733154296,118.30084991455078,168.63502733154297,118.78468991455078,168.63502733154297,119.58552991455078C168.47502733154298,120.23620991455078,167.99332733154296,120.87020991455078,167.35162733154297,120.87020991455078Z" fill="#E6EDF5" fill-opacity="1"/></g><g><path d="M138.45832122802733,121.35404897216797C139.43332122802735,121.35404897216797,140.22499122802733,120.56988897216797,140.22499122802733,119.58552897216796C140.22499122802733,118.61784797216797,139.43332122802735,117.81700897216797,138.45832122802733,117.81700897216797C137.48332122802734,117.81700897216797,136.69332122802734,118.61784797216797,136.69332122802734,119.58552897216796C136.69332122802734,120.56988897216797,137.48332122802734,121.35404897216797,138.45832122802733,121.35404897216797Z" fill="#989FB0" fill-opacity="1"/></g><g><path d="M97.68832397460938,58.65502752075196L168.6350239746094,58.65502752075196L168.6350239746094,29.874927520751953L157.40002397460938,35.514167520751954L151.46002397460938,39.685197520751956L140.86662397460938,39.53504752075195L131.55662397460938,44.35672752075195L123.53162397460937,45.47462752075195L120.64162397460937,48.69462752075195L112.29502397460938,54.00022752075195L104.10832397460938,55.45172752075195L97.68832397460938,58.65502752075196Z" fill="#989FB0" fill-opacity="1"/></g><g><path d="M97.68832397460938,58.655043383789064L168.6350239746094,58.655043383789064L168.6350239746094,36.79884338378906L157.40002397460938,40.969873383789064L151.46002397460938,44.18991338378906L140.86662397460938,44.02307338378906L131.55662397460938,47.72694338378906L123.53162397460937,48.694643383789064L120.64162397460937,50.94694338378906L112.29502397460938,55.11804338378906L104.10832397460938,56.25254338378906L97.68832397460938,58.655043383789064Z" fill="#E6EDF5" fill-opacity="1"/></g><g><path d="M97.68832397460938,58.65503258666992L168.6350239746094,58.65503258666992L168.6350239746094,46.27543258666992L157.40002397460938,48.694632586669925L151.46002397460938,50.46315258666992L140.86662397460938,50.46315258666992L131.55662397460938,52.38182258666992L123.53162397460937,53.032512586669924L120.64162397460937,54.31718258666992L112.29502397460938,56.56953258666992L104.10832397460938,57.22023258666992L97.68832397460938,58.65503258666992Z" fill="#CED7E2" fill-opacity="1"/></g></g></svg>