<svg xmlns="http://www.w3.org/2000/svg" xmlns:xlink="http://www.w3.org/1999/xlink" fill="none" version="1.1" width="32" height="32" viewBox="0 0 32 32"><g><rect x="0" y="0" width="32" height="32" rx="9.600000381469727" fill="#E9EDFA" fill-opacity="1"/><g transform="matrix(-1,0,0,1,46,0)"><rect x="23" y="9" width="14" height="14" rx="7" fill="#E9EDFA" fill-opacity="1"/><g transform="matrix(0,-1,1,0,1.8961172103881836,46.583617210388184)"><path d="M24.896117210388184,33.86405L36.27106721038818,33.86405C36.633567210388186,33.86405,36.927367210388184,33.58595,36.927367210388184,33.24365C36.927367210388184,32.90135,36.633567210388186,32.62415,36.27106721038818,32.62415L24.896117210388184,32.62415C24.533706210388182,32.62415,24.239867210388184,32.90135,24.239867210388184,33.24365C24.239867210388184,33.58595,24.533706210388182,33.86405,24.896117210388184,33.86405ZM34.05627721038818,27.120359999999998L34.05627721038818,27.120359999999998C34.179317210388184,27.23657,34.347167210388186,27.30237,34.52106721038818,27.30237C34.69506721038818,27.30237,34.86286721038818,27.23657,34.98596721038818,27.120359999999998C35.10896721038819,27.004080000000002,35.177367210388184,26.84641,35.177367210388184,26.68201C35.177367210388184,26.5176,35.10896721038819,26.35994,34.98596721038818,26.24365L31.048457210388182,22.524902C30.925417210388183,22.4086914,30.757617210388183,22.34375,30.583617210388184,22.34375L30.583617210388184,22.34375C30.562467210388185,22.34375,30.539667210388185,22.34527645,30.518677210388184,22.34716797C30.367267210388185,22.3610134,30.226277210388183,22.4232935,30.118777210388185,22.524902L30.118777210388185,22.524902L26.181277210388185,26.24365L26.181277210388185,26.24365C26.058227210388182,26.35994,25.989867210388184,26.5176,25.989867210388184,26.68201C25.989867210388184,26.84641,26.058227210388182,27.004080000000002,26.181277210388185,27.120359999999998C26.304317210388184,27.23657,26.472117210388184,27.30237,26.646117210388184,27.30237C26.820117210388183,27.30237,26.987917210388183,27.23657,27.110957210388182,27.120359999999998L27.110957210388182,27.120359999999998L29.927367210388184,24.45947L29.930787210388182,29.89063C29.930947210388183,30.2329,30.224627210388185,30.51013,30.587037210388182,30.51013L30.587037210388182,30.51013C30.761187210388183,30.51006,30.928827210388185,30.44527,31.051877210388184,30.32898C31.174927210388184,30.21277,31.243287210388182,30.054949999999998,31.243287210388182,29.89063L31.239867210388184,24.46033L34.05627721038818,27.120359999999998Z" fill-rule="evenodd" fill="#2C54D1" fill-opacity="1"/></g></g></g></svg>