<svg xmlns="http://www.w3.org/2000/svg" xmlns:xlink="http://www.w3.org/1999/xlink" fill="none" version="1.1" width="32" height="32" viewBox="0 0 32 32"><g transform="matrix(-1,0,0,1,64,0)"><rect x="32" y="0" width="32" height="32" rx="9.600000381469727" fill="#E9EDFA" fill-opacity="1"/><g transform="matrix(-1,0,0,1,110,0)"><rect x="55" y="9" width="14" height="14" rx="7" fill="#E9EDFA" fill-opacity="1"/><g transform="matrix(0,-1,1,0,33.896117210388184,78.58361721038818)"><path d="M56.896117210388184,33.86405L68.27106721038818,33.86405C68.63356721038818,33.86405,68.92736721038818,33.58595,68.92736721038818,33.24365C68.92736721038818,32.90135,68.63356721038818,32.62415,68.27106721038818,32.62415L56.896117210388184,32.62415C56.53370621038818,32.62415,56.239867210388184,32.90135,56.239867210388184,33.24365C56.239867210388184,33.58595,56.53370621038818,33.86405,56.896117210388184,33.86405ZM66.05627721038819,27.120359999999998L66.05627721038819,27.120359999999998C66.17931721038818,27.23657,66.34716721038818,27.30237,66.52106721038818,27.30237C66.69506721038819,27.30237,66.86286721038819,27.23657,66.98596721038818,27.120359999999998C67.10896721038819,27.004080000000002,67.17736721038818,26.84641,67.17736721038818,26.68201C67.17736721038818,26.5176,67.10896721038819,26.35994,66.98596721038818,26.24365L63.048457210388186,22.524902C62.92541721038818,22.4086914,62.75761721038818,22.34375,62.583617210388184,22.34375L62.583617210388184,22.34375C62.562467210388185,22.34375,62.53966721038818,22.34527645,62.518677210388184,22.34716797C62.367267210388185,22.3610134,62.22627721038818,22.4232935,62.11877721038818,22.524902L62.11877721038818,22.524902L58.18127721038818,26.24365L58.18127721038818,26.24365C58.05822721038818,26.35994,57.989867210388184,26.5176,57.989867210388184,26.68201C57.989867210388184,26.84641,58.05822721038818,27.004080000000002,58.18127721038818,27.120359999999998C58.304317210388184,27.23657,58.472117210388184,27.30237,58.646117210388184,27.30237C58.82011721038818,27.30237,58.98791721038818,27.23657,59.110957210388186,27.120359999999998L59.110957210388186,27.120359999999998L61.927367210388184,24.45947L61.93078721038818,29.89063C61.93094721038818,30.2329,62.224627210388185,30.51013,62.58703721038818,30.51013L62.58703721038818,30.51013C62.76118721038819,30.51006,62.928827210388185,30.44527,63.051877210388184,30.32898C63.174927210388184,30.21277,63.24328721038818,30.054949999999998,63.24328721038818,29.89063L63.239867210388184,24.46033L66.05627721038819,27.120359999999998Z" fill-rule="evenodd" fill="#2C54D1" fill-opacity="1"/></g></g></g></svg>