<svg xmlns="http://www.w3.org/2000/svg" xmlns:xlink="http://www.w3.org/1999/xlink" fill="none" version="1.1" width="40" height="61.3515625" viewBox="0 0 40 61.3515625"><defs><clipPath id="master_svg0_63_4485"><rect x="12" y="12" width="16" height="16" rx="0"/></clipPath></defs><g><g><rect x="0" y="0" width="40" height="40" rx="12" fill="#E9EDFA" fill-opacity="1"/><g clip-path="url(#master_svg0_63_4485)"><g><g><g style="opacity:0.20000000298023224;"><path d="M14.666663373069763,13.333333373069763L25.333333373069763,13.333333373069763C26.069633373069763,13.333333373069763,26.666633373069764,13.930298373069764,26.666633373069764,14.666663373069763L26.666633373069764,24.000033373069762C26.666633373069764,24.736433373069765,26.069633373069763,25.333333373069763,25.333333373069763,25.333333373069763L20.855953373069763,25.333333373069763L18.195473373069763,27.211333373069763C17.846843373069763,27.45743337306976,17.359863373069764,27.317033373069762,17.195633373069764,26.923133373069764L16.53336337306976,25.333333373069763L14.666663373069763,25.333333373069763C13.930338373069763,25.333333373069763,13.333333373069763,24.736433373069765,13.333333373069763,24.000033373069762L13.333333373069763,14.666663373069763C13.333333373069763,13.930298373069764,13.930338373069763,13.333333373069763,14.666663373069763,13.333333373069763Z" fill-rule="evenodd" fill="#2C54D1" fill-opacity="1"/></g><g><path d="M13.333333373069763,14.666663373069763L13.333333373069763,24.000033373069762Q13.333333373069763,24.552333373069764,13.723795373069763,24.942833373069764Q14.114420373069763,25.333333373069763,14.666663373069763,25.333333373069763L16.55550337306976,25.333333373069763L17.217933373069762,26.923133373069764C17.236813373069765,26.968233373069765,17.260413373069763,27.01113337306976,17.288733373069764,27.051133373069764C17.500973373069762,27.351933373069762,17.916993373069765,27.423633373069762,18.21777337306976,27.211333373069763L20.878253373069764,25.333333373069763L25.333333373069763,25.333333373069763Q25.885533373069762,25.333333373069763,26.276233373069765,24.942833373069764Q26.666633373069764,24.552333373069764,26.666633373069764,24.000033373069762L26.666633373069764,14.666663373069763Q26.666633373069764,14.114380373069764,26.276233373069765,13.723877373069763Q25.885533373069762,13.333333373069763,25.333333373069763,13.333333373069763L14.666663373069763,13.333333373069763Q14.114420373069763,13.333333373069763,13.723795373069763,13.723877373069763Q13.333333373069763,14.114380373069764,13.333333373069763,14.666663373069763ZM17.000003373069763,24.000033373069762L14.666663373069763,24.000033373069762L14.666663373069763,14.666663373069763L25.333333373069763,14.666663373069763L25.333333373069763,24.000033373069762L20.666663373069763,24.000033373069762C20.528973373069764,24.000033373069762,20.394693373069764,24.042633373069762,20.282223373069762,24.122033373069762L18.128743373069764,25.64213337306976L17.615393373069764,24.410233373069765C17.511883373069765,24.16183337306976,17.269203373069764,24.000033373069762,17.000003373069763,24.000033373069762Z" fill-rule="evenodd" fill="#2C54D1" fill-opacity="1"/></g></g></g></g></g><g><path d="M12.1220166015625,49.50865625C10.8610166015625,50.05465625,9.4440166015625,50.35365625,7.8710166015625,50.37965625L7.8710166015625,55.943656250000004C7.8060166015625,57.91965625,7.3900166015625,59.46665625,6.6230166015625,60.58465625L7.2860166015625,61.28665625C8.222016601562501,59.96065625,8.716016601562501,58.17965625,8.7810166015625,55.943656250000004L8.7810166015625,54.39665625L10.7050166015625,54.39665625L10.7050166015625,61.33865625L11.6280166015625,61.33865625L11.6280166015625,54.39665625L12.9800166015625,54.39665625L12.9800166015625,53.49965625L8.7810166015625,53.49965625L8.7810166015625,51.13365625C10.1850166015625,51.05565625,11.4460166015625,50.78265625,12.5900166015625,50.34065625L12.1220166015625,49.50865625ZM1.2930166015625,50.50965625L1.2930166015625,51.36765625L7.1560166015625,51.36765625L7.1560166015625,50.50965625L4.6990166015625,50.50965625C4.5170166015625,50.04165625,4.3350166015625,49.61265625,4.1400166015625,49.22265625L3.1780166015625,49.37865625C3.3990166015625,49.71665625,3.5940166015625,50.09365625,3.7760166015625,50.50965625L1.2930166015625,50.50965625ZM1.1630166015625,53.46065625L1.1630166015625,54.30565625L3.7890166015625,54.30565625L3.7890166015625,55.76165625L1.3710166015625,55.76165625L1.3710166015625,56.61965625L3.7890166015625,56.61965625L3.7890166015625,60.077656250000004C3.7890166015625,60.38965625,3.6200166015625,60.54565625,3.2820166015625,60.54565625C3.1000166015625,60.54565625,2.9050166015625,60.51965625,2.6970166015625,60.480656249999996L2.8920166015625,61.35165625L3.5940166015625,61.35165625C4.348016601562501,61.35165625,4.7250166015624995,61.00065625,4.7250166015624995,60.29865625L4.7250166015624995,56.61965625L7.0130166015625,56.61965625L7.0130166015625,55.76165625L4.7250166015624995,55.76165625L4.7250166015624995,54.30565625L7.2340166015625,54.30565625L7.2340166015625,53.46065625L5.7650166015625,53.46065625C6.0120166015625,53.01865625,6.2330166015625,52.51165625,6.4410166015625,51.95265625L5.5960166015625,51.66665625C5.4010166015625,52.29065625,5.1800166015625,52.88865625,4.9200166015625,53.46065625L3.4900166015625,53.46065625C3.2820166015625,52.75865625,3.0480166015625,52.17365625,2.8010166015625,51.69265625L1.9690166015625,51.99165625C2.2290166015625,52.446656250000004,2.4630166015625,52.94065625,2.6580166015625,53.46065625L1.1630166015625,53.46065625ZM2.2810166015625,57.321656250000004C1.9950166015625,58.46565625,1.5530166015625,59.50565625,0.9420166015625,60.44165625L1.7220166015625,60.93565625C2.3200166015625,59.96065625,2.8010166015625,58.81665625,3.1390166015625,57.50365625L2.2810166015625,57.321656250000004ZM6.0120166015625,57.230656249999996L5.2320166015625,57.43865625C5.5960166015625,58.21865625,5.8950166015625,59.02465625,6.1420166015625,59.84365625L6.9220166015625,59.54465625C6.7140166015625,58.84265625,6.4020166015625,58.07565625,6.0120166015625,57.230656249999996ZM19.7010166015625,51.90065625L19.7010166015625,52.79765625L23.4710166015625,52.79765625L23.4710166015625,59.71365625C23.4710166015625,60.16865625,23.2240166015625,60.40265625,22.7430166015625,60.40265625C22.1450166015625,60.40265625,21.5080166015625,60.376656249999996,20.8320166015625,60.33765625L21.0270166015625,61.26065625L23.0680166015625,61.26065625C23.9520166015625,61.26065625,24.4070166015625,60.818656250000004,24.4070166015625,59.94765625L24.4070166015625,52.79765625L25.8500166015625,52.79765625L25.8500166015625,51.90065625L24.4070166015625,51.90065625L24.4070166015625,49.35265625L23.4710166015625,49.35265625L23.4710166015625,51.90065625L19.7010166015625,51.90065625ZM15.0470166015625,52.74565625L14.4230166015625,53.33065625C15.3330166015625,54.34465625,16.1650166015625,55.34565625,16.8930166015625,56.32065625C16.2170166015625,57.59465625,15.2680166015625,58.699656250000004,14.0460166015625,59.63565625L14.5920166015625,60.45465625C15.7880166015625,59.46665625,16.7500166015625,58.34865625,17.4650166015625,57.10065625C17.9330166015625,57.76365625,18.3620166015625,58.41365625,18.7520166015625,59.06365625L19.4280166015625,58.38765625C18.9730166015625,57.65965625,18.4660166015625,56.91865625,17.9200166015625,56.19065625C18.5960166015625,54.74765625,18.9600166015625,53.13565625,19.0250166015625,51.36765625L19.0250166015625,50.67865625L14.6180166015625,50.67865625L14.6180166015625,51.58865625L18.1800166015625,51.58865625C18.0890166015625,52.96665625,17.8030166015625,54.24065625,17.3220166015625,55.41065625C16.6200166015625,54.52665625,15.8660166015625,53.62965625,15.0470166015625,52.74565625ZM20.4030166015625,54.33165625L19.6880166015625,54.85165625C20.4940166015625,55.85265625,21.1570166015625,56.80165625,21.6770166015625,57.69865625L22.4180166015625,57.17865625C21.9500166015625,56.34665625,21.2740166015625,55.39765625,20.4030166015625,54.33165625ZM31.1800166015625,53.17465625L31.1800166015625,54.08465625L34.7420166015625,54.08465625L34.7420166015625,56.17765625L32.3110166015625,56.17765625L32.3110166015625,61.26065625L33.2340166015625,61.26065625L33.2340166015625,60.61065625L37.2250166015625,60.61065625L37.2250166015625,61.26065625L38.1610166015625,61.26065625L38.1610166015625,56.17765625L35.6910166015625,56.17765625L35.6910166015625,54.08465625L39.0450166015625,54.08465625L39.0450166015625,53.17465625L35.6910166015625,53.17465625L35.6910166015625,51.00365625C36.7830166015625,50.84765625,37.7580166015625,50.61365625,38.5900166015625,50.31465625L38.1350166015625,49.52165625C36.3670166015625,50.11965625,34.1310166015625,50.41865625,31.4400166015625,50.41865625L31.7130166015625,51.26365625C32.7920166015625,51.26365625,33.8060166015625,51.21165625,34.7420166015625,51.12065625L34.7420166015625,53.17465625L31.1800166015625,53.17465625ZM33.2340166015625,59.72665625L33.2340166015625,57.02265625L37.2250166015625,57.02265625L37.2250166015625,59.72665625L33.2340166015625,59.72665625ZM28.6060166015625,49.50865625L27.9560166015625,50.14565625C28.8920166015625,50.84765625,29.6460166015625,51.52365625,30.1920166015625,52.16065625L30.8290166015625,51.51065625C30.2310166015625,50.83465625,29.4900166015625,50.17165625,28.6060166015625,49.50865625ZM27.0460166015625,53.35665625L27.0460166015625,54.25365625L28.9570166015625,54.25365625L28.9570166015625,59.45365625C28.9570166015625,59.64865625,28.8530166015625,59.830656250000004,28.6710166015625,59.99965625L29.0350166015625,60.83165625C29.9320166015625,60.24665625,30.7770166015625,59.583656250000004,31.5570166015625,58.82965625L31.3100166015625,57.84165625C30.7900166015625,58.34865625,30.2960166015625,58.79065625,29.8540166015625,59.15465625L29.8540166015625,53.35665625L27.0460166015625,53.35665625Z" fill="#2C54D1" fill-opacity="1"/></g></g></svg>