<?xml version="1.0" standalone="no"?><!DOCTYPE svg PUBLIC "-//W3C//DTD SVG 1.1//EN" "http://www.w3.org/Graphics/SVG/1.1/DTD/svg11.dtd"><svg t="1744963942009" class="icon" viewBox="0 0 1024 1024" version="1.1" xmlns="http://www.w3.org/2000/svg" p-id="3441" xmlns:xlink="http://www.w3.org/1999/xlink" width="200" height="200"><path d="M913.066667 187.733333h-81.066667V106.666667c0-21.333333-17.066667-38.4-38.4-38.4s-34.133333 17.066667-34.133333 38.4v81.066666h-81.066667c-21.333333 0-38.4 17.066667-38.4 38.4s17.066667 38.4 38.4 38.4h81.066667V341.333333c0 21.333333 17.066667 38.4 38.4 38.4s38.4-17.066667 38.4-38.4V260.266667h81.066666c21.333333 0 38.4-17.066667 38.4-38.4-4.266667-17.066667-21.333333-34.133333-42.666666-34.133334z" p-id="3442" fill="#ffffff"></path><path d="M797.866667 661.333333c0 21.333333-17.066667 38.4-38.4 38.4h-264.533334c-34.133333 0-64 8.533333-89.6 29.866667L341.333333 780.8c-17.066667-46.933333-64-81.066667-115.2-81.066667h-38.4c-21.333333 0-38.4-17.066667-38.4-38.4V273.066667c0-21.333333 17.066667-38.4 38.4-38.4h362.666667v-8.533334c0-25.6 8.533333-46.933333 21.333333-68.266666h-384c-64 0-115.2 51.2-115.2 115.2v392.533333c0 64 51.2 115.2 115.2 115.2h38.4c25.6 0 51.2 21.333333 51.2 51.2 0 38.4 46.933333 64 76.8 38.4l102.4-72.533333c12.8-8.533333 29.866667-12.8 46.933334-12.8H768c64 0 115.2-51.2 115.2-115.2v-221.866667c-21.333333 17.066667-46.933333 25.6-76.8 29.866667v183.466666z" p-id="3443" fill="#ffffff"></path></svg>