<svg xmlns="http://www.w3.org/2000/svg" xmlns:xlink="http://www.w3.org/1999/xlink" fill="none" version="1.1" width="44" height="44" viewBox="0 0 44 44"><defs><radialGradient cx="0" cy="0" r="1" gradientUnits="userSpaceOnUse" id="master_svg0_1017_88394" gradientTransform="translate(29.33154296875 11.335979223251343) rotate(113.04381073366892) scale(33.51077250425956 33.51077250425956)"><stop offset="0%" stop-color="#D9DFEB" stop-opacity="1"/><stop offset="100%" stop-color="#FFFFFF" stop-opacity="1"/></radialGradient><clipPath id="master_svg1_2539_77921"><rect x="1" y="1" width="42" height="42" rx="0"/></clipPath></defs><g><g><rect x="0" y="0" width="44" height="44" rx="22" fill="url(#master_svg0_1017_88394)" fill-opacity="1"/><rect x="0.5" y="0.5" width="43" height="43" rx="21.5" fill-opacity="0" stroke-opacity="1" stroke="#FFFFFF" fill="none" stroke-width="1"/></g><g clip-path="url(#master_svg1_2539_77921)"><g><path d="M18.89543703125,27.581328359375L25.35920703125,27.581328359375L25.35920703125,32.918168359375L18.87397703125,32.918168359375L18.89543703125,27.581328359375ZM14.79157703125,20.437138359375C14.79157703125,21.386338359375,14.21757703125,22.155398359375,13.49470703125,22.155398359375C12.771840031250001,22.155398359375,12.19970703125,21.386338359375,12.19970703125,20.437138359375C12.19970703125,19.487935359375,12.77370703125,18.719334859375,13.49657703125,18.719334859375C14.21943703125,18.719334859375,14.79343703125,19.488401359375,14.79157703125,20.437138359375ZM32.079707031249995,20.413338359375C32.079707031249995,21.362068359375,31.50520703125,22.131138359375,30.78240703125,22.131138359375C30.05950703125,22.131138359375,29.48410703125,21.360668359375,29.48410703125,20.413338359375C29.48410703125,19.466000359375,30.05810703125,18.695068359375,30.78100703125,18.695068359375C31.50380703125,18.695068359375,32.079707031249995,19.488401359375,32.079707031249995,20.413338359375Z" fill="#FFFFFF" fill-opacity="1"/></g><g><path d="M18.895465317,28.34674072265625Q20.12886125,28.98467472265625,21.89333125,28.98467472265625Q23.97700125,29.07007372265625,25.33780125,28.36820662265625L25.33780125,29.00614072265625Q23.04180125,30.23907072265625,22.02120125,30.23907072265625Q20.979131250000002,30.23907072265625,18.89453125,28.79240772265625L18.895465317,28.34674072265625Z" fill="#D7E3F8" fill-opacity="1"/></g><g><path d="M37.032834375,36.064802109375C35.991234375000005,35.235542109375004,34.130134375,32.891472109375,32.173934375,31.955332109375Q29.005734375,30.403203109375,25.338634375,30.855871109375L25.338634375,30.959939109375C25.083334375,31.236672109375,23.828934375,32.469602109375,22.127934375000002,32.469602109375C20.447934375000003,32.469602109375,19.172534374999998,31.321607109375,18.896334375000002,31.022939109375L18.874834375,30.874072109375Q14.829764375,30.400405109375,11.641504375,31.952542109375C9.472904375,33.016072109375,7.9259013750000005,35.339142109375,6.990234375,36.146942109375C10.871494375000001,40.290812109375,16.301474374999998,42.633662109375,21.979134375,42.613962109375C27.932834375,42.592562109375,33.290634374999996,40.083742109375,37.032834375,36.064802109375Z" fill="#739DE6" fill-opacity="1"/></g><g><path d="M30.568615625,19.038539257812502C30.568615625,21.2379392578125,29.903215625,24.218539257812502,28.786015624999997,25.8290392578125C27.246015625,28.0484392578125,23.773015625,29.0742392578125,22.148585625000003,29.0742392578125C20.506385625,29.0742392578125,17.381585625,28.2374392578125,15.839715625,26.2742392578125C14.525582625,24.6002392578125,13.728515625,21.445639257812502,13.728515625,19.0408692578125C13.728515625,13.8104692578125,17.492185625,9.5577392578125,22.148585625000003,9.5577392578125C26.805015625,9.5577392578125,30.568615625,13.8104692578125,30.568615625,19.0408692578125" fill="#FFFFFF" fill-opacity="1"/></g><g><path d="M31.312584375,14.696132890625Q31.239284375,11.421992890624999,29.372684375,9.088662890625C28.068784375,7.459060890625,23.912684374999998,6.276060890625,20.936264375,6.510327490625Q15.106204375,6.743660890625,14.984864375,10.616992890625C13.919464375,11.254922890625,12.824667375,12.355332890625,12.707534375,14.204722890625Q12.474201375,17.925912890625,13.132667375,18.904012890624998Q14.068334375,18.904012890624998,14.302604375,20.306812890625Q14.727734375,20.562612890624997,14.769264375,20.306812890625C14.832734375,19.881712890625,14.386604375,17.840512890625,15.279334375,15.969662890625C15.389464375,15.733062890625,15.499604375,15.522122890625,15.606004375,15.334062890625C18.529204375,12.082322890625,27.103284375,12.419262890625,29.112284375,15.974792890625C29.194584375,16.222252890625,29.254084375,16.476702890625,29.290084375,16.735012890625Q29.459884375,17.948312890624997,29.672684375,20.243412890625002Q29.991484375,20.455712890625,30.204284375,19.945612890625C30.417084375,19.414112890625,30.374584375,18.904012890624998,30.565984375,18.755212890625C31.652384375,18.033212890625002,31.376084375,15.015322890625,31.312584375,14.696132890625Z" fill="#9BB9ED" fill-opacity="1"/></g></g></g></svg>