<?xml version="1.0" standalone="no"?><!DOCTYPE svg PUBLIC "-//W3C//DTD SVG 1.1//EN" "http://www.w3.org/Graphics/SVG/1.1/DTD/svg11.dtd"><svg t="1745203596680" class="icon" viewBox="0 0 1024 1024" version="1.1" xmlns="http://www.w3.org/2000/svg" p-id="6575" xmlns:xlink="http://www.w3.org/1999/xlink" width="200" height="200"><path d="M602.752 209.536A220.224 220.224 0 0 0 516.096 192c-30.208 0-59.072 5.824-86.656 17.536a220.8 220.8 0 0 0-70.784 47.68c-20.48 20.48-36.416 44.16-47.68 70.72a220.224 220.224 0 0 0-17.536 86.72c0 30.144 5.888 59.072 17.536 86.656 11.264 26.624 27.2 50.176 47.68 70.72 20.544 20.544 44.16 36.48 70.784 47.744 27.584 11.648 56.448 17.472 86.656 17.472a220.8 220.8 0 0 0 157.44-65.216c20.48-20.48 36.416-44.096 47.68-70.72 11.648-27.584 17.536-56.512 17.536-86.656 0-30.208-5.888-59.072-17.536-86.72a220.8 220.8 0 0 0-47.68-70.72 220.8 220.8 0 0 0-70.784-47.68z m-148.416 58.88c19.648-8.32 40.256-12.416 61.76-12.416a157.44 157.44 0 0 1 112.192 46.464 157.44 157.44 0 0 1 46.464 112.192 157.44 157.44 0 0 1-46.464 112.192 157.44 157.44 0 0 1-112.192 46.4 157.44 157.44 0 0 1-112.192-46.464 157.44 157.44 0 0 1-46.464-112.128 157.44 157.44 0 0 1 46.464-112.192 157.44 157.44 0 0 1 50.432-33.984z" fill="#4d6bfe" p-id="6576"></path><path d="M779.904 864c0-29.056-6.656-56.96-19.968-83.584a220.032 220.032 0 0 0-55.744-69.76 270.912 270.912 0 0 0-84.608-48.192 308.864 308.864 0 0 0-104.832-17.92c-36.608 0-71.552 6.016-104.896 17.92-31.936 11.392-60.096 27.52-84.544 48.192a220.032 220.032 0 0 0-55.744 69.76A184.576 184.576 0 0 0 249.6 864a32 32 0 0 1-64 0c0-39.168 8.96-76.544 26.752-112.192 16.96-33.984 40.832-64 71.616-90.048a334.336 334.336 0 0 1 104.32-59.52 372.416 372.416 0 0 1 126.464-21.696c43.968 0 86.144 7.232 126.4 21.632 39.232 14.08 73.984 33.92 104.32 59.584 30.784 26.048 54.656 56.064 71.68 90.048a247.68 247.68 0 0 1 26.752 112.192 32 32 0 1 1-64 0z" fill="#4d6bfe" p-id="6577"></path></svg>