<svg xmlns="http://www.w3.org/2000/svg" xmlns:xlink="http://www.w3.org/1999/xlink" fill="none" version="1.1" width="16" height="16" viewBox="0 0 16 16"><g><g><g><path d="M3.52636390625,4.000078046875L4.66650390625,4.000078046875C5.03466390625,4.000078046875,5.33317390625,4.298548046875,5.33317390625,4.666748046875C5.33317390625,5.034958046875,5.03466390625,5.333418046875,4.66650390625,5.333418046875L1.99983390625,5.333418046875C1.63167290625,5.333418046875,1.33317090625,5.034958046875,1.33317090625,4.666748046875L1.33317090625,2.000078046875C1.33317090625,1.6318770468750001,1.63167290625,1.333415046875,1.99983390625,1.333415046875C2.3680039062500002,1.333415046875,2.66650390625,1.6318770468750001,2.66650390625,2.000078046875L2.66650390625,2.964598046875Q3.52636390625,2.049768046875,4.66390390625,1.467814046875Q6.22981390625,0.666748046875,7.99983390625,0.666748046875Q9.49137390625,0.666748046875,10.85450390625,1.243327046875Q12.17060390625,1.800008046875,13.18520390625,2.814618046875Q14.19990390625,3.829268046875,14.75670390625,5.145428046875Q15.33320390625,6.508588046875,15.33320390625,8.000078046875C15.33320390625,8.368288046875,15.03470390625,8.666748046875,14.66650390625,8.666748046875C14.29830390625,8.666748046875,13.99980390625,8.368288046875,13.99980390625,8.000078046875Q13.99980390625,6.778968046875,13.52860390625,5.664838046875Q13.07320390625,4.588218046874999,12.24250390625,3.757448046875Q11.41160390625,2.926678046875,10.33512390625,2.471318046875Q9.22086390625,2.000078046875,7.99983390625,2.000078046875Q6.55094390625,2.000078046875,5.27116390625,2.654828046875Q4.2667639062500005,3.168698046875,3.52636390625,4.000078046875ZM12.47200390625,12.000048046875Q12.36070390625,12.124448046875,12.24250390625,12.242648046875Q11.41180390625,13.073448046875,10.33512390625,13.528848046875Q9.22103390625,14.000048046875,7.99983390625,14.000048046875Q6.77864390625,14.000048046875,5.66455390625,13.528848046875Q4.587893906250001,13.073448046875,3.75716390625,12.242748046875Q2.92643390625,11.411948046875,2.47102390625,10.335328046875Q1.99983390625,9.221228046875,1.99983390625,8.000078046875C1.99983390625,7.631878046875,1.70133390625,7.333418046875,1.33317090625,7.333418046875C0.96500690625,7.333418046875,0.66650390625,7.631878046875,0.66650390625,8.000078046875Q0.66650390625,9.491618046875,1.24300090625,10.854748046875Q1.79980390625,12.170948046875,2.81429390625,13.185548046875Q3.82894390625,14.200148046875,5.14518390625,14.756848046875Q6.50830390625,15.333448046875,7.99983390625,15.333448046875Q9.49137390625,15.333448046875,10.85450390625,14.756848046875Q12.17070390625,14.200148046875,13.18520390625,13.185548046875Q13.26040390625,13.110448046875,13.33320390625,13.033348046875L13.33320390625,14.000048046875C13.33320390625,14.368248046875,13.63170390625,14.666748046875,13.99980390625,14.666748046875C14.36800390625,14.666748046875,14.66650390625,14.368248046875,14.66650390625,14.000048046875L14.66650390625,11.333448046875C14.66650390625,10.965248046875,14.36800390625,10.666748046875,13.99980390625,10.666748046875L11.33320390625,10.666748046875C10.96500390625,10.666748046875,10.66650390625,10.965248046875,10.66650390625,11.333448046875C10.66650390625,11.701648046875,10.96500390625,12.000048046875,11.33320390625,12.000048046875L12.47200390625,12.000048046875Z" fill-rule="evenodd" fill="#2C54D1" fill-opacity="1"/></g></g></g></svg>