<svg xmlns="http://www.w3.org/2000/svg" xmlns:xlink="http://www.w3.org/1999/xlink" fill="none" version="1.1" width="44" height="44" viewBox="0 0 44 44"><g><rect x="0" y="0" width="44" height="44" rx="22" fill="#FFFFFF" fill-opacity="1"/><g><g><path d="M16.755863253860475,18.910756507720947C16.599613253860475,18.754455407720947,16.387613253860472,18.666666507720947,16.166666253860473,18.666666507720947C15.945719253860474,18.666666507720947,15.733724253860474,18.754455407720947,15.577474253860474,18.910756507720947C15.421223853860473,19.067031507720948,15.333333253860474,19.278976507720948,15.333333253860474,19.499999507720947C15.333333253860474,19.721026507720946,15.421223853860473,19.93296650772095,15.577474253860474,20.089246507720947L21.410803253860472,25.922576507720947C21.736123253860473,26.248016507720948,22.263873253860474,26.248016507720948,22.589193253860472,25.922576507720947L28.422333253860472,20.08957650772095L28.422533253860472,20.089246507720947C28.578733253860474,19.93296650772095,28.666633253860475,19.721026507720946,28.666633253860475,19.499999507720947C28.666633253860475,19.278976507720948,28.578733253860474,19.067031507720948,28.422533253860472,18.910756507720947C28.266233253860474,18.754455407720947,28.054233253860474,18.666666507720947,27.833333253860474,18.666666507720947C27.612433253860473,18.666666507720947,27.400433253860474,18.754455407720947,27.244133253860475,18.910756507720947L27.243733253860473,18.911061507720948L22.000003253860474,24.15481650772095L16.755863253860475,18.910756507720947Z" fill-rule="evenodd" fill="#2C54D1" fill-opacity="1"/></g></g></g></svg>