<?xml version="1.0" standalone="no"?><!DOCTYPE svg PUBLIC "-//W3C//DTD SVG 1.1//EN" "http://www.w3.org/Graphics/SVG/1.1/DTD/svg11.dtd"><svg t="1744964794600" class="icon" viewBox="0 0 1024 1024" version="1.1" xmlns="http://www.w3.org/2000/svg" p-id="1827" xmlns:xlink="http://www.w3.org/1999/xlink" width="200" height="200"><path d="M531.341 948.09200001l0-825.66600001 323.356 323.375c7.471 7.471 19.361 7.35800001 26.776-0.03699999 7.452-7.452 7.377-19.456-0.076-26.88900001l-353.451-353.242c-3.394-5.158-8.951-8.742-15.568-8.742-4.722 0-8.875 1.896-12.193 4.722l-0.228-0.171-0.986 0.986c-0.019 0.019-0.038 0.038-0.05699999 0.057l-356.42800001 356.428c-7.301 7.301-7.415 19.418-0.019 26.833 7.452 7.452 19.399 7.433 26.776 0.037l324.172-324.153 0 826.464c0 10.581 8.495 19.02 18.963 19.02 10.54299999 0 18.963-8.514 18.963-19.02z" p-id="1828"></path></svg>