<svg xmlns="http://www.w3.org/2000/svg" xmlns:xlink="http://www.w3.org/1999/xlink" fill="none" version="1.1" width="20" height="20" viewBox="0 0 20 20"><g><g style="opacity:0.20000000298023224;"><path d="M17.499951953125,0.83331298828125L7.499921953125,0.83331298828125C6.579507953125,0.83331298828125,5.833251953125,1.5794929882812498,5.833251953125,2.49998298828125L5.833251953125,6.66791298828125C5.833251953125,7.12817298828125,6.206379953125,7.50125298828125,6.666584953125,7.50125298828125L12.502151953125,7.50125298828125L12.502151953125,13.33331298828125C12.502151953125,13.79351298828125,12.875281953125,14.16661298828125,13.335491953125,14.16661298828125L17.499951953125,14.16661298828125C18.420351953125,14.16661298828125,19.166551953125,13.42051298828125,19.166551953125,12.50001298828125L19.166551953125,2.49998298828125C19.166551953125,1.5794929882812498,18.420351953125,0.83331298828125,17.499951953125,0.83331298828125Z" fill="#8A8A8A" fill-opacity="1"/></g><g><path d="M6.620601953125,7.49998298828125L2.499921953125,7.49998298828125L2.499921953125,17.50001298828125L12.499951953125,17.50001298828125L12.499951953125,7.50125298828125L6.666581953125,7.50125298828125C6.651321953125,7.50125298828125,6.635861953125,7.50082298828125,6.620601953125,7.49998298828125ZM14.166551953125,14.16661298828125L14.166551953125,17.50001298828125Q14.166551953125,18.19031298828125,13.678551953125,18.67851298828125Q13.190251953125,19.16661298828125,12.499951953125,19.16661298828125L2.499921953125,19.16661298828125Q1.809610953125,19.16661298828125,1.321329953125,18.67851298828125Q0.833251953125,18.19031298828125,0.833251953125,17.50001298828125L0.833251953125,7.49998298828125Q0.833251953125,6.80962298828125,1.321329953125,6.32146298828125Q1.809610953125,5.83331298828125,2.499921953125,5.83331298828125L5.833251953125,5.83331298828125L5.833251953125,2.49998298828125Q5.833251953125,1.80962098828125,6.321331953125,1.32146698828125Q6.809611953125,0.83331298828125,7.499921953125,0.83331298828125L17.499951953125,0.83331298828125Q18.190251953125,0.83331298828125,18.678551953125,1.32146698828125Q19.166551953125,1.80962098828125,19.166551953125,2.49998298828125L19.166551953125,12.50001298828125Q19.166551953125,13.19031298828125,18.678551953125,13.67851298828125Q18.190251953125,14.16661298828125,17.499951953125,14.16661298828125L14.166551953125,14.16661298828125ZM14.168851953125,12.50001298828125L17.499951953125,12.50001298828125L17.499951953125,2.49998298828125L7.499921953125,2.49998298828125L7.499921953125,5.83331298828125L12.499951953125,5.83331298828125Q12.949751953125,5.83331298828125,13.313551953125,6.04047298828125Q13.509651953125,6.15161298828125,13.680751953125,6.32274298828125Q14.168851953125,6.81089298828125,14.168851953125,7.50125298828125L14.168851953125,12.50001298828125Z" fill-rule="evenodd" fill="#8A8A8A" fill-opacity="1"/></g></g></svg>