<svg xmlns="http://www.w3.org/2000/svg" xmlns:xlink="http://www.w3.org/1999/xlink" fill="none" version="1.1" width="16" height="16" viewBox="0 0 16 16"><g><g style="opacity:0.20000000298023224;"><path d="M13.3333,3.3333740234375L2.666667,3.3333740234375C2.298503,3.3333740234375,2,3.6318770234375,2,4.0000410234375L2,14.0000740234375C2,14.7364740234375,2.5970050000000002,15.3333740234375,3.33333,15.3333740234375L12.6667,15.3333740234375C13.403,15.3333740234375,14,14.7364740234375,14,14.0000740234375L14,4.0000410234375C14,3.6318770234375,13.7015,3.3333740234375,13.3333,3.3333740234375Z" fill="#4B4B4B" fill-opacity="1"/></g><g><path d="M5.33317390625,4.6666259765625L3.33317390625,4.6666259765625L3.33317390625,13.9999259765625L12.66650390625,13.9999259765625L12.66650390625,4.6666259765625L5.33317390625,4.6666259765625ZM11.33320390625,3.3332959765625L14.66650390625,3.3332959765625C15.03470390625,3.3332959765625,15.33320390625,3.6317959765625,15.33320390625,3.9999559765625C15.33320390625,4.368125976562499,15.03470390625,4.6666259765625,14.66650390625,4.6666259765625L13.99980390625,4.6666259765625L13.99980390625,13.9999259765625Q13.99980390625,14.5522259765625,13.60940390625,14.9427259765625Q13.21870390625,15.3333259765625,12.66650390625,15.3333259765625L3.33317390625,15.3333259765625Q2.78092390625,15.3333259765625,2.3903039062499998,14.9427259765625Q1.99983390625,14.5522259765625,1.99983390625,13.9999259765625L1.99983390625,4.6666259765625L1.33317090625,4.6666259765625C0.96500690625,4.6666259765625,0.66650390625,4.368125976562499,0.66650390625,3.9999559765625C0.66650390625,3.6317959765625,0.96500690625,3.3332959765625,1.33317090625,3.3332959765625L4.66650390625,3.3332959765625L4.66650390625,1.9999559765625Q4.66650390625,1.4477129765624999,5.05696390625,1.0571699765625Q5.44759390625,0.6666259765625,5.99983390625,0.6666259765625L9.99983390625,0.6666259765625Q10.55208390625,0.6666259765625,10.94270390625,1.0571699765625Q11.33320390625,1.4477129765624999,11.33320390625,1.9999559765625L11.33320390625,3.3332959765625ZM5.99983390625,3.3332959765625L9.99983390625,3.3332959765625L9.99983390625,1.9999559765625L5.99983390625,1.9999559765625L5.99983390625,3.3332959765625ZM5.99983390625,7.9999559765625L5.99983390625,10.6666259765625C5.99983390625,11.0348259765625,6.29834390625,11.3333259765625,6.66650390625,11.3333259765625C7.03466390625,11.3333259765625,7.33317390625,11.0348259765625,7.33317390625,10.6666259765625L7.33317390625,7.9999559765625C7.33317390625,7.6317959765625,7.03466390625,7.3332959765625,6.66650390625,7.3332959765625C6.29834390625,7.3332959765625,5.99983390625,7.6317959765625,5.99983390625,7.9999559765625ZM8.66650390625,7.9999559765625L8.66650390625,10.6666259765625C8.66650390625,11.0348259765625,8.96500390625,11.3333259765625,9.33317390625,11.3333259765625C9.70133390625,11.3333259765625,9.99983390625,11.0348259765625,9.99983390625,10.6666259765625L9.99983390625,7.9999559765625C9.99983390625,7.6317959765625,9.70133390625,7.3332959765625,9.33317390625,7.3332959765625C8.96500390625,7.3332959765625,8.66650390625,7.6317959765625,8.66650390625,7.9999559765625Z" fill-rule="evenodd" fill="#4B4B4B" fill-opacity="1"/></g></g></svg>