<svg xmlns="http://www.w3.org/2000/svg" xmlns:xlink="http://www.w3.org/1999/xlink" fill="none" version="1.1" width="20" height="20" viewBox="0 0 20 20"><g><g><path d="M4.408163313465119,5.000003313465118L5.833333313465118,5.000003313465118C6.293533313465119,5.000003313465118,6.6666633134651185,5.3730733134651185,6.6666633134651185,5.833333313465118C6.6666633134651185,6.293593313465118,6.293533313465119,6.6666633134651185,5.833333313465118,6.6666633134651185L2.5000033134651183,6.6666633134651185C2.0397933134651183,6.6666633134651185,1.6666663134651185,6.293593313465118,1.6666663134651185,5.833333313465118L1.6666663134651185,2.5000033134651183C1.6666663134651185,2.0397433134651184,2.0397933134651183,1.6666663134651185,2.5000033134651183,1.6666663134651185C2.9602033134651182,1.6666663134651185,3.3333333134651184,2.0397433134651184,3.3333333134651184,2.5000033134651183L3.3333333134651184,3.7056433134651185Q4.408163313465119,2.5621033134651183,5.830073313465118,1.8346633134651185Q7.787473313465118,0.8333333134651184,10.000003313465118,0.8333333134651184Q11.864433313465119,0.8333333134651184,13.568333313465118,1.5540563134651184Q15.213433313465119,2.2499033134651185,16.48173331346512,3.5181633134651182Q17.750033313465117,4.786483313465118,18.44603331346512,6.431683313465118Q19.16663331346512,8.135633313465117,19.16663331346512,10.000003313465118C19.16663331346512,10.460253313465119,18.79353331346512,10.833333313465118,18.33333331346512,10.833333313465118C17.873133313465118,10.833333313465118,17.500033313465117,10.460253313465119,17.500033313465117,10.000003313465118Q17.500033313465117,8.473613313465119,16.91103331346512,7.080943313465118Q16.34173331346512,5.735163313465119,15.303333313465119,4.696703313465118Q14.264733313465118,3.6582433134651184,12.91913331346512,3.0890433134651185Q11.526333313465118,2.5000033134651183,10.000003313465118,2.5000033134651183Q8.18888331346512,2.5000033134651183,6.589153313465118,3.3184333134651185Q5.333663313465118,3.9607733134651184,4.408163313465119,5.000003313465118ZM15.590233313465118,15.000033313465119Q15.451033313465118,15.155533313465119,15.303333313465119,15.30323331346512Q14.264933313465118,16.34173331346512,12.91913331346512,16.91093331346512Q11.526533313465118,17.500033313465117,10.000003313465118,17.500033313465117Q8.47351331346512,17.500033313465117,7.080893313465118,16.91093331346512Q5.735063313465118,16.34173331346512,4.696653313465118,15.303333313465119Q3.6582433134651184,14.264833313465118,3.0889933134651186,12.919033313465118Q2.5000033134651183,11.526433313465118,2.5000033134651183,10.000003313465118C2.5000033134651183,9.539743313465118,2.1268733134651185,9.166663313465119,1.6666663134651185,9.166663313465119C1.2064613134651183,9.166663313465119,0.8333333134651184,9.539743313465118,0.8333333134651184,10.000003313465118Q0.8333333134651184,11.864433313465119,1.5539553134651185,13.568333313465118Q2.2499633134651185,15.213533313465119,3.5180633134651185,16.48173331346512Q4.786373313465118,17.750133313465117,6.431683313465118,18.44593331346512Q8.13558331346512,19.16663331346512,10.000003313465118,19.16663331346512Q11.864433313465119,19.16663331346512,13.568333313465118,18.44593331346512Q15.213633313465118,17.750133313465117,16.48173331346512,16.481833313465117Q16.57573331346512,16.38793331346512,16.66663331346512,16.291533313465116L16.66663331346512,17.500033313465117C16.66663331346512,17.960233313465118,17.039833313465117,18.33333331346512,17.500033313465117,18.33333331346512C17.960233313465118,18.33333331346512,18.33333331346512,17.960233313465118,18.33333331346512,17.500033313465117L18.33333331346512,14.166633313465118C18.33333331346512,13.70643331346512,17.960233313465118,13.333333313465118,17.500033313465117,13.333333313465118L14.166633313465118,13.333333313465118C13.70643331346512,13.333333313465118,13.333333313465118,13.70643331346512,13.333333313465118,14.166633313465118C13.333333313465118,14.626933313465118,13.70643331346512,15.000033313465119,14.166633313465118,15.000033313465119L15.590233313465118,15.000033313465119Z" fill-rule="evenodd" fill="#8A8A8A" fill-opacity="1"/></g></g></svg>