<svg xmlns="http://www.w3.org/2000/svg" xmlns:xlink="http://www.w3.org/1999/xlink" fill="none" version="1.1" width="20" height="20" viewBox="0 0 20 20"><defs><clipPath id="master_svg0_1612_015875"><rect x="0" y="0" width="20" height="20" rx="2.5"/></clipPath><clipPath id="master_svg1_1612_015875/1612_68018"><rect x="0" y="0" width="20" height="20" rx="0"/></clipPath><linearGradient x1="0.5" y1="0" x2="1.7564505338668823" y2="1.4716330766677856" id="master_svg2_1109_59338"><stop offset="0%" stop-color="#FFFFFF" stop-opacity="1"/><stop offset="100%" stop-color="#FFFFFF" stop-opacity="0"/></linearGradient></defs><g clip-path="url(#master_svg0_1612_015875)"><rect x="0" y="0" width="20" height="20" rx="2.5" fill="#4CC09E" fill-opacity="1"/><g clip-path="url(#master_svg1_1612_015875/1612_68018)"><g><path d="M15.064,2.5C15.2263,2.5,15.3885,2.50751903,15.5508,2.5225571C16.060200000000002,2.569551,16.4527,2.996256,16.4508,3.50755L16.4508,14.6113C16.4508,15.1432,16.028100000000002,15.5793,15.4942,15.5981C14.5319,15.6339,13.715,15.7617,13.049,15.9835C12.1735,16.274900000000002,11.32072,16.805,10.4981,17.5681L10.4981,5.1542200000000005C11.10752,4.11095,11.9584,3.3628080000000002,13.049,2.909787C13.6886,2.642862,14.3735,2.50187976,15.064,2.5ZM17.4451,14.8462L17.4451,4.71435C17.7073,4.71435,17.9602,4.817740000000001,18.1469,5.00384C18.3318,5.18993,18.4375,5.43994,18.4375,5.703110000000001L18.4375,15.756C18.4375,16.541800000000002,17.9451,17.8125,16.4527,17.6847C15.4017,17.5963,15.3338,17.5587,14.447,17.5738C13.5791,17.5888,12.3641,17.5587,11.27732,17.8125C11.8867,17.306800000000003,12.7754,16.9478,13.3659,16.823700000000002C13.9546,16.6978,14.6885,16.6433,15.5527,16.6113C16.6508,16.5719,17.4451,15.7504,17.4451,14.8462ZM4.93976,2.5C5.62654,2.5,6.29633,2.637222,6.9548,2.907907C8.04534,3.3590489999999997,8.89814,4.10907,9.50567,5.152340000000001L9.50567,17.5719C8.68117,16.805,7.82836,16.276699999999998,6.9548,15.9873C6.2869,15.7673,5.4737100000000005,15.6376,4.50959,15.6038C3.97564,15.585,3.55301,15.1489,3.5549,14.615L3.5549,3.50755C3.5549,2.998136,3.94357,2.5714308,4.45487,2.5244368C4.61524,2.50751903,4.7775,2.5,4.93976,2.5ZM2.558699,14.8462C2.558699,15.6621,3.16434,16.5643,4.47185,16.6113C5.337870000000001,16.6433,5.87747,16.737299999999998,6.63972,16.823700000000002C7.40196,16.9083,8.13401,17.306800000000003,8.74343,17.8125C7.65478,17.5569,6.53029,17.5719,5.55484,17.5719C4.7869399999999995,17.5719,4.6529799999999994,17.6828,3.54924,17.6828C2.247387,17.6828,1.5625,16.5098,1.5625,15.7542L1.5625,5.69935C1.5625,5.152340000000001,2.005884,4.71059,2.554925,4.71059L2.558699,14.8462Z" fill="url(#master_svg2_1109_59338)" fill-opacity="1"/></g></g></g></svg>