<svg xmlns="http://www.w3.org/2000/svg" xmlns:xlink="http://www.w3.org/1999/xlink" fill="none" version="1.1" width="20" height="20" viewBox="0 0 20 20"><defs><linearGradient x1="0.5" y1="0" x2="0.5" y2="1" id="master_svg0_1612_68377"><stop offset="3.482142835855484%" stop-color="#6489FD" stop-opacity="1"/><stop offset="100%" stop-color="#2C54D1" stop-opacity="1"/></linearGradient><clipPath id="master_svg1_1612_015830"><rect x="0" y="0" width="20" height="20" rx="2.5"/></clipPath><clipPath id="master_svg2_1612_015830/1612_68136"><rect x="0" y="0" width="20" height="20" rx="0"/></clipPath><clipPath id="master_svg3_1612_015830/1612_68029"><rect x="0.9375" y="1.25" width="18.125" height="18.125" rx="0"/></clipPath><linearGradient x1="0.5" y1="0" x2="1.7564505338668823" y2="1.4716330766677856" id="master_svg4_1109_59338"><stop offset="0%" stop-color="#FFFFFF" stop-opacity="1"/><stop offset="100%" stop-color="#FFFFFF" stop-opacity="0"/></linearGradient><linearGradient x1="0.5" y1="0" x2="1.7564505338668823" y2="1.4716330766677856" id="master_svg5_1109_59338"><stop offset="0%" stop-color="#FFFFFF" stop-opacity="1"/><stop offset="100%" stop-color="#FFFFFF" stop-opacity="0"/></linearGradient></defs><g clip-path="url(#master_svg1_1612_015830)"><rect x="0" y="0" width="20" height="20" rx="2.5" fill="url(#master_svg0_1612_68377)" fill-opacity="1"/><g clip-path="url(#master_svg2_1612_015830/1612_68136)"><g clip-path="url(#master_svg3_1612_015830/1612_68029)"><g><path d="M2.3380150625,6.04104890625L4.395629062499999,7.22693890625C4.3386690625,7.39955890625,4.3093290625,7.58080890625,4.3093290625,7.76810890625L4.3093290625,12.52462890625C4.3088890625000005,13.13172890625,4.6274590625,13.69452890625,5.1482490625,14.00652890625L9.0321790625,16.330828906249998C9.1190490625,16.382828906249998,9.2103090625,16.42702890625,9.3049190625,16.46292890625L9.3048690625,18.87332890625C9.2374790625,18.84392890625,9.1720390625,18.81042890625,9.108949062499999,18.77262890625L3.0673300625,15.46952890625C2.5467290625,15.15792890625,2.2278965235,14.59602890625,2.2275390625,13.98932890625L2.2275390625,6.64866890625C2.2275390625,6.43807890625,2.2663783625,6.23265890625,2.3380150625,6.04104890625ZM17.7632390625,6.64866890625L17.7632390625,13.98842890625C17.7632390625,14.59542890625,17.4443390625,15.15782890625,16.9234390625,15.46952890625L10.8817090625,18.77322890625C10.8178490625,18.81032890625,10.7522490625,18.84402890625,10.6857890625,18.87332890625L10.6858690625,16.39562890625C10.7264390625,16.37572890625,10.7661390625,16.35412890625,10.8049790625,16.330828906249998L14.6889390625,14.00652890625C15.2100390625,13.69472890625,15.5289390625,13.13192890625,15.5287390625,12.52462890625L15.5287390625,7.76810890625C15.5288390625,7.67092890625,15.5207390625,7.57391890625,15.5045390625,7.47810890625L17.7063390625,6.20935890625C17.743439062500002,6.35089890625,17.7632390625,6.49848890625,17.7632390625,6.64866890625ZM10.8817990625,1.55209290625L16.8397390625,5.11667890625L14.7467390625,6.32241890625C14.7277390625,6.30995890625,14.7084390625,6.29786890625,14.6889390625,6.28616890625L10.8049790625,3.96185890625C10.2591790625,3.63523890625,9.577979062499999,3.63523890625,9.0321790625,3.96185890625L5.3329590625000005,6.17569890625L3.3193590625000002,5.01569890625L9.1089990625,1.55209290625C9.6547990625,1.22547410625,10.3359990625,1.22547410625,10.8817990625,1.55209290625Z" fill="url(#master_svg4_1109_59338)" fill-opacity="1"/></g><g><path d="M5.62104965625,7.7145227343750005L9.50152265625,9.941312734375L9.50152265625,14.826432734375C9.30284265625,14.788632734375,9.11236265625,14.716182734375,8.93878265625,14.612382734375L6.33224065625,13.058812734375C5.81018365625,12.747222734375,5.49053217125,12.183982734375,5.49072265625,11.576012734375L5.49072265625,8.372202734375C5.49072265625,8.142622734375,5.53646655625,7.919942734375001,5.62018665625,7.7145227343750005L5.62104965625,7.7145227343750005ZM14.15447265625,8.372202734375L14.15447265625,11.576012734375C14.15448265625,12.184162734375,13.83448265625,12.747442734375,13.31209265625,13.058812734375L10.706402656249999,14.612382734375C10.66066265625,14.639142734375,10.61405265625,14.664162734375,10.566582656249999,14.687472734375L10.566582656249999,10.094072734375L14.12512265625,8.053722734375C14.14474265625,8.158742734375,14.15456265625,8.265362734375,14.15447265625,8.372202734375ZM10.706402656249999,5.335833734375L13.312952656250001,6.889402734375C13.42315265625,6.955472734375,13.52563265625,7.033632734375,13.61849265625,7.122442734374999L10.19545265625,9.084252734375L10.138492656250001,9.084252734375L6.32360965625,6.894582734375L6.33224065625,6.888542734375L8.93878265625,5.334970734375C9.48330265625,5.010413634375,10.16189265625,5.010413634375,10.706402656249999,5.334970734375L10.706402656249999,5.335833734375Z" fill="url(#master_svg5_1109_59338)" fill-opacity="1"/></g></g></g></g></svg>